<?xml version="1.0"?>
<svg xmlns="http://www.w3.org/2000/svg" xmlns:xlink="http://www.w3.org/1999/xlink" xmlns:svgjs="http://svgjs.com/svgjs" version="1.1" width="512" height="512" x="0" y="0" viewBox="0 0 24 24" style="enable-background:new 0 0 512 512" xml:space="preserve" class=""><g><path clip-rule="evenodd" d="m17.6565 6.34315c-1.1716-1.17157-3.0711-1.17157-4.2427 0l-1.4142 1.41421c-.3905.39053-1.0237.39053-1.4142 0-.3905-.39052-.3905-1.02369 0-1.41421l1.4142-1.41421c1.9526-1.95263 5.1185-1.95263 7.0711 0 1.9526 1.95262 1.9526 5.11846 0 7.07106l-1.4142 1.4142c-.3905.3905-1.0237.3905-1.4142 0-.3906-.3905-.3906-1.0237 0-1.4142l1.4142-1.4142c1.1715-1.17158 1.1715-3.07108 0-4.24265zm-11.31373 11.31375c-1.17157-1.1716-1.17157-3.0711 0-4.2427l1.41421-1.4142c.39053-.3905.39053-1.0237 0-1.4142-.39052-.3905-1.02369-.3905-1.41421 0l-1.41422 1.4142c-1.95262 1.9526-1.95262 5.1185 0 7.0711 1.95263 1.9526 5.11845 1.9526 7.07105 0l1.4142-1.4142c.3906-.3906.3906-1.0237 0-1.4143-.3905-.3905-1.0237-.3905-1.4142 0l-1.4142 1.4143c-1.17156 1.1715-3.07106 1.1715-4.24263 0zm9.19243-7.77822c.3905-.39052.3905-1.02369 0-1.41421-.3906-.39052-1.0237-.39052-1.4143 0l-5.65681 5.65683c-.39053.3905-.39053 1.0237 0 1.4142.39052.3906 1.02369.3906 1.41421 0z" fill="#8f8f8f" fill-rule="evenodd" data-original="#000000"/></g></svg>
