<?xml version="1.0"?>
<svg xmlns="http://www.w3.org/2000/svg" xmlns:xlink="http://www.w3.org/1999/xlink" xmlns:svgjs="http://svgjs.com/svgjs" version="1.1" width="512" height="512" x="0" y="0" viewBox="0 0 512 512" style="enable-background:new 0 0 512 512" xml:space="preserve" class=""><g><g id="Solid"><path d="M70.5,372.069v15.492a83.9,83.9,0,0,1-28.868-29.822c.576.194,1.157.378,1.746.547l21.32,6.091A8.034,8.034,0,0,1,70.5,372.069Zm2.087-126.016-9.636,6.886A77.5,77.5,0,0,0,30.612,312h32.08a46.938,46.938,0,0,1,19.429-34.131l13.19-9.419a55.364,55.364,0,0,0,.092-90.044c-18.276-13.153-42.119-11-63.5-10.2,2.01,5.989,7.078,10.561,12.738,13.368,12.56,6.23,25.9,5.181,35.164,17.445a32.914,32.914,0,0,1,6.692,20A33.268,33.268,0,0,1,72.587,246.053ZM422.03,173.382a55.592,55.592,0,0,0-29.077,33.641,57.952,57.952,0,0,0,3.687,41.689,55.649,55.649,0,0,0,17.053,19.74c15.559,11.128,30.812,22.62,32.615,43.548h32.08a77.866,77.866,0,0,0-8.482-31.459c-7.485-14.543-20.191-24.982-33.5-34.492-14.972-10.7-18.29-32.37-7.211-47.033a33.462,33.462,0,0,1,17.39-11.937l14.635-4.182A23.922,23.922,0,0,0,477.1,168H445.88a54.878,54.878,0,0,0-23.632,5.283C422.176,173.317,422.1,173.35,422.03,173.382ZM198.5,216a16,16,0,1,0-16-16A16.019,16.019,0,0,0,198.5,216ZM467.37,357.738c-.577.194-1.159.379-1.748.547L444.3,364.377a8.033,8.033,0,0,0-5.8,7.692v15.492a83.923,83.923,0,0,0,28.87-29.823ZM359.683,252.147A60.1,60.1,0,0,0,358.5,264v52a36,36,0,0,0,19.674,32.081,56.079,56.079,0,0,1,52.058-36.074,30.905,30.905,0,0,0-12.649-21.115c-13.933-9.95-27.125-19.211-35.168-34.854A71.551,71.551,0,0,1,374.5,223.38c0-.053,0-.106,0-.159A59.841,59.841,0,0,0,359.683,252.147ZM198.5,400V370.055a100.15,100.15,0,0,1-61.073,43.29A31.993,31.993,0,0,0,198.5,400Zm112-29.945V400a31.993,31.993,0,0,0,61.073,13.345A100.15,100.15,0,0,1,310.5,370.055ZM166.5,448a48.054,48.054,0,0,0,48-48V264h-16v52a84.311,84.311,0,0,1-64,81.581V368c0-1.322-.062-2.628-.153-3.927A52.058,52.058,0,0,0,166.5,316V264c0-10.27-1.713-21.825,4.9-30.538,1-1.325,7.362-8.234,8.885-7.176A31.992,31.992,0,1,0,198.5,168V124.73A92.836,92.836,0,0,1,291.23,32h30.54a92.836,92.836,0,0,1,92.73,92.73V144a59.837,59.837,0,0,1-2.3,16.436A71.668,71.668,0,0,0,378.681,199.3c-15.644,7.584-27.033,22.094-32.879,38.273-5.266,14.576-3.3,31.233-3.3,46.515V316a52.058,52.058,0,0,0,32.153,48.073c-.091,1.3-.153,2.605-.153,3.927v29.581A84.311,84.311,0,0,1,310.5,316V264h-16V400a48,48,0,0,0,96,0V368a40.045,40.045,0,0,1,40-40h46.6a23.927,23.927,0,0,1-15.877,14.9l-21.319,6.091C417.233,355.468,422.5,382.217,422.5,400a80,80,0,1,1-160,0V264h-16V400a80,80,0,0,1-160,0c0-17.6,4.757-44.675-17.406-51.008L47.774,342.9A23.927,23.927,0,0,1,31.9,328H78.5a40.045,40.045,0,0,1,40,40v32A48.054,48.054,0,0,0,166.5,448Zm104-248a32,32,0,1,0,32-32A32.036,32.036,0,0,0,270.5,200ZM266.972,51.93l5.068,15.175A60.486,60.486,0,0,1,291.23,64V48A76.415,76.415,0,0,0,266.972,51.93ZM230.5,124.73a61.142,61.142,0,0,1,29.509-52.072l-8.254-13.707A77.227,77.227,0,0,0,214.5,124.73Zm72,91.27a16,16,0,1,0-16-16A16.019,16.019,0,0,0,302.5,216Z" fill="#8f8f8f" data-original="#000000"/></g></g></svg>
