<?xml version="1.0"?>
<svg xmlns="http://www.w3.org/2000/svg" xmlns:xlink="http://www.w3.org/1999/xlink" xmlns:svgjs="http://svgjs.com/svgjs" version="1.1" width="512" height="512" x="0" y="0" viewBox="0 0 91 91" style="enable-background:new 0 0 512 512" xml:space="preserve" class=""><g><g><path d="m88.652 16.237c-4.977-.756-7.901 1.158-9.479 2.886-2.482 2.717-3.398 6.964-2.392 11.083.748 3.059 2.433 4.778 3.92 6.292 1.697 1.73 3.038 3.096 3.254 6.579.15 2.357-.527 4.351-2.008 5.931-2.095 2.229-5.144 3.023-7.298 3.023-6.035 0-9.096-2.422-9.096-7.2 0-.154.019-.289.025-.437 2.866-1.52 4.846-4.5 4.846-7.964 0-1.215-.249-2.373-.686-3.434 1.001-2.807 1.502-5.699 1.502-9.017 0-11.907-10.159-21.234-23.127-21.234-12.97 0-23.128 9.327-23.128 21.234 0 3.314.486 6.179 1.475 8.964-.449 1.075-.702 2.251-.702 3.487 0 3.522 2.041 6.546 4.986 8.041-.021.121-.072.232-.072.36 0 4.375-4.091 9.096-10.694 9.096-2.523 0-5.061-1.082-6.789-2.892-1.883-1.97-2.758-4.659-2.607-7.997.161-3.504 2.047-5.541 4.232-7.905 2.097-2.264 4.474-4.832 5.211-8.847.843-4.585-.416-8.673-3.541-11.512-3.594-3.264-9.258-4.424-14.424-2.949-1.211.346-1.911 1.606-1.565 2.815.344 1.211 1.617 1.907 2.814 1.565 3.633-1.034 7.695-.253 10.115 1.94 1.944 1.765 2.677 4.296 2.121 7.316-.498 2.715-2.154 4.504-4.074 6.577-2.439 2.636-5.203 5.625-5.438 10.791-.264 5.766 1.955 9.359 3.864 11.352 2.57 2.692 6.34 4.299 10.082 4.299 9.131 0 14.871-6.657 15.215-13.044 4.801-.21 8.653-4.153 8.653-9.006 0-4.986-4.06-9.042-9.046-9.042-1.761 0-3.392.527-4.783 1.4-.309-1.499-.478-3.073-.478-4.809 0-9.508 7.985-16.678 18.574-16.678 10.587 0 18.572 7.17 18.572 16.678 0 1.761-.164 3.331-.478 4.834-1.4-.89-3.049-1.425-4.828-1.425-4.984 0-9.042 4.056-9.042 9.042 0 4.865 3.868 8.819 8.688 9.01.28 6.988 5.318 11.147 13.623 11.147 3.967 0 8.037-1.71 10.62-4.464 2.344-2.494 3.462-5.722 3.233-9.333-.325-5.174-2.667-7.563-4.55-9.483-1.283-1.306-2.297-2.34-2.745-4.181-.631-2.585-.097-5.372 1.33-6.933 1.205-1.322 3.034-1.806 5.438-1.452 1.22.198 2.406-.669 2.592-1.914.186-1.243-.671-2.405-1.915-2.59zm-53.851 15.707c2.476 0 4.492 2.012 4.492 4.486 0 2.476-2.016 4.49-4.492 4.49-2.474 0-4.488-2.014-4.488-4.49 0-2.473 2.015-4.486 4.488-4.486zm22.093 4.486c0-2.474 2.015-4.486 4.488-4.486 2.476 0 4.49 2.012 4.49 4.486 0 2.476-2.015 4.49-4.49 4.49-2.474 0-4.488-2.014-4.488-4.49z" fill="#8f8f8f" data-original="#000000" class=""/><path d="m11.99 67.632c1.705.301 3.24 1.118 4.867 1.987 2.354 1.255 5.024 2.678 8.579 2.678h.033c6.737-.017 11.485-2.403 14.111-7.092 2.014-3.608 1.87-7.733 1.728-11.726-.035-.962-.07-1.922-.07-2.865 0-1.256-1.02-2.275-2.276-2.275-1.258 0-2.278 1.02-2.278 2.275 0 .997.035 2.011.072 3.026.124 3.521.241 6.846-1.153 9.341-1.811 3.233-5.034 4.745-10.144 4.762-.008 0-.015 0-.022 0-2.416 0-4.28-.995-6.437-2.145-1.868-.997-3.802-2.026-6.218-2.453-1.365-.243-6.06-.807-9.287 1.974-1.267 1.087-2.754 3.124-2.665 6.645.031 1.238 1.044 2.221 2.276 2.221h.06c1.256-.031 2.251-1.077 2.218-2.336-.035-1.413.319-2.42 1.082-3.077 1.275-1.096 3.695-1.259 5.524-.94z" fill="#8f8f8f" data-original="#000000" class=""/><path d="m39.567 77.981c1.298-.362 2.521-.704 3.501-1.085 9.242-3.601 8.801-10.451 8.415-16.496-.116-1.788-.235-3.638-.124-5.428.078-1.254-.878-2.336-2.134-2.414-1.265-.093-2.336.882-2.414 2.134-.128 2.076.002 4.07.126 6 .414 6.464.354 9.671-5.522 11.959-.771.299-1.889.611-3.071.941-4.356 1.215-9.778 2.727-11.498 6.84-.89 2.126-.605 4.529.842 7.142.417.752 1.193 1.176 1.994 1.176.375 0 .754-.093 1.102-.286 1.102-.609 1.497-1.998.888-3.098-.738-1.331-.948-2.399-.625-3.174.871-2.076 5.474-3.359 8.52-4.211z" fill="#8f8f8f" data-original="#000000" class=""/><path d="m69.408 71.45c2.066-.067 3.986-.411 5.848-.743 5.376-.958 8.313-1.255 11.147 3.116.437.676 1.17 1.04 1.913 1.04.427 0 .855-.119 1.238-.366 1.057-.687 1.355-2.097.672-3.151-4.616-7.114-10.542-6.058-15.771-5.125-1.701.305-3.461.618-5.199.676-2.578.109-4.766-.69-6.448-2.311-2.499-2.412-3.942-6.647-3.959-11.623-.004-1.255-1.021-2.271-2.278-2.271 0 0-.004 0-.006 0-1.259.005-2.276 1.026-2.27 2.284.019 6.202 1.971 11.628 5.353 14.89 2.566 2.472 5.94 3.673 9.76 3.584z" fill="#8f8f8f" data-original="#000000" class=""/><path d="m50.353 88.328c.348 0 .7-.081 1.031-.25.145-.073 3.601-1.861 5.699-5.525 2.739-4.787 1.777-10.952 1.736-11.211-.201-1.242-1.376-2.083-2.613-1.885-1.242.204-2.085 1.374-1.885 2.615.008.046.725 4.869-1.192 8.217-1.403 2.453-3.799 3.722-3.811 3.729-1.121.571-1.567 1.94-.997 3.063.402.789 1.201 1.247 2.032 1.247z" fill="#8f8f8f" data-original="#000000" class=""/></g></g></svg>
