<svg height="469pt" viewBox="0 -21 469.33636 469" width="469pt" xmlns="http://www.w3.org/2000/svg"><path d="m462.046875 256.710938c-2.683594-.898438-5.613281-.691407-8.144531.574218s-4.453125 3.488282-5.34375 6.175782c-5.214844 15.738281-19.035156 27.0625-35.488282 29.082031-12.824218.898437-23.25-5.9375-30.1875-19.8125-12.117187-24.226563-8.679687-44.769531-4.3125-70.769531 3.324219-17.296876 5.144532-34.847657 5.433594-52.460938 0-82.472656-66.859375-149.332031-149.332031-149.332031s-149.332031 66.859375-149.332031 149.332031c.289062 17.613281 2.109375 35.164062 5.4375 52.460938 4.367187 26 7.804687 46.542968-4.3125 70.773437-6.9375 13.875-17.363282 20.707031-30.183594 19.8125-16.457031-2.019531-30.277344-13.34375-35.492188-29.082031-1.195312-3.628906-4.238281-6.339844-7.980468-7.109375-3.738282-.765625-7.605469.523437-10.132813 3.382812-2.53125 2.863281-3.335937 6.855469-2.117187 10.476563 7.988281 23.976562 30.21875 43.601562 54.207031 43.601562 47.574219 0 59.683594-47.734375 72.234375-33.429687 5.28125 6.019531-8.667969 26.226562-18.328125 37.78125-18.648437 22.660156-44.851563 37.96875-71.894531 24.460937-5.273438-2.636718-11.679688-.5-14.316406 4.769532-2.632813 5.269531-.496094 11.675781 4.773437 14.3125 8.636719 4.417968 18.195313 6.734374 27.894531 6.769531 30.726563 0 59.636719-23.589844 80.191406-53.882813 9.25-13.042968 19.457032-31.78125 27.152344-29.941406 7.164063 1.710938 5.355469 18.070312-.996094 29.957031-23.019531 43.527344-55.449218 86.578125-104.761718 70.097657-5.578125-1.816407-11.578125 1.207031-13.433594 6.773437-1.855469 5.5625 1.128906 11.582031 6.679688 13.476563 9.105468 3.121093 18.652343 4.746093 28.273437 4.8125 59.441406 0 93.28125-67.234376 107.253906-95.171876 6.519531-15.894531 13.546875-25.429687 19.066407-22.667968 4.519531 2.261718 7.027343 9.289062-.648438 22.648437-12.90625 23.03125-26.957031 80.757813-68.609375 91.464844-2.722656.835937-4.984375 2.753906-6.257813 5.304687-1.273437 2.550782-1.449218 5.511719-.480468 8.195313 1.859375 5.589844 7.898437 8.613281 13.488281 6.75 38.449219-12.835937 52.804687-45.398437 64.335937-71.5625 9.730469-22.066406 15.832032-34.566406 28.289063-34.566406s18.558594 12.5 28.292969 34.5625c11.53125 26.167969 25.882812 58.730469 64.332031 71.5625 5.589844 1.863281 11.628906-1.160157 13.492187-6.75.964844-2.679688.792969-5.640625-.480468-8.191407-1.273438-2.550781-3.535156-4.46875-6.261719-5.308593-41.648437-10.707031-55.703125-68.429688-68.609375-91.460938-7.675781-13.363281-5.164062-20.390625-.648438-22.648437 5.523438-2.761719 12.550782 6.773437 19.070313 22.667968 13.96875 27.9375 47.808594 95.171876 107.25 95.171876 9.621094-.066407 19.167969-1.691407 28.273437-4.8125 5.550782-1.894532 8.535157-7.914063 6.679688-13.476563-1.855469-5.566406-7.855469-8.589844-13.429688-6.773437-49.316406 16.480468-81.75-26.570313-104.765624-70.097657-6.347657-11.886719-8.160157-28.246093-.996094-29.957031 7.695312-1.839844 17.902344 16.898438 27.152344 29.941406 20.554687 30.292969 49.464843 53.882813 80.191406 53.882813 9.699218-.035157 19.257812-2.351563 27.894531-6.769531 5.269531-2.636719 7.40625-9.042969 4.773437-14.3125-2.636718-5.269532-9.042968-7.40625-14.3125-4.773438-27.046874 13.511719-53.25-1.796875-71.894531-24.457031-9.660156-11.554688-23.609375-31.765625-18.332031-37.78125 12.550781-14.304688 24.664062 33.425781 72.238281 33.425781 23.988281 0 46.21875-19.625 54.207031-43.601562 1.859376-5.589844-1.15625-11.628907-6.742187-13.5zm-270.042969-85.875c-11.78125 0-21.332031-9.550782-21.332031-21.335938 0-11.78125 9.550781-21.332031 21.332031-21.332031 11.785156 0 21.335938 9.550781 21.335938 21.332031-.011719 11.777344-9.558594 21.324219-21.335938 21.335938zm85.335938 0c-11.785156 0-21.335938-9.550782-21.335938-21.335938 0-11.78125 9.550782-21.332031 21.335938-21.332031 11.78125 0 21.332031 9.550781 21.332031 21.332031-.011719 11.777344-9.554687 21.324219-21.332031 21.335938zm0 0"/></svg>