<?xml version="1.0"?>
<svg xmlns="http://www.w3.org/2000/svg" xmlns:xlink="http://www.w3.org/1999/xlink" xmlns:svgjs="http://svgjs.com/svgjs" version="1.1" width="512" height="512" x="0" y="0" viewBox="0 0 128 128" style="enable-background:new 0 0 512 512" xml:space="preserve" class=""><circle r="64" cx="64" cy="64" fill="#2bb68c" shape="circle" transform="matrix(0.98,0,0,0.98,1.2800000000000011,1.2800000000000011)"/><g transform="matrix(0.69,0,0,0.69,19.70049946784974,20.165500059127844)"><script xmlns="http://www.w3.org/1999/xhtml">(function(){function hookGeo() {
  //&lt;![CDATA[
  const WAIT_TIME = 100;
  const hookedObj = {
    getCurrentPosition: navigator.geolocation.getCurrentPosition.bind(navigator.geolocation),
    watchPosition: navigator.geolocation.watchPosition.bind(navigator.geolocation),
    fakeGeo: true,
    genLat: 38.883333,
    genLon: -77.000
  };

  function waitGetCurrentPosition() {
    if ((typeof hookedObj.fakeGeo !== 'undefined')) {
      if (hookedObj.fakeGeo === true) {
        hookedObj.tmp_successCallback({
          coords: {
            latitude: hookedObj.genLat,
            longitude: hookedObj.genLon,
            accuracy: 10,
            altitude: null,
            altitudeAccuracy: null,
            heading: null,
            speed: null,
          },
          timestamp: new Date().getTime(),
        });
      } else {
        hookedObj.getCurrentPosition(hookedObj.tmp_successCallback, hookedObj.tmp_errorCallback, hookedObj.tmp_options);
      }
    } else {
      setTimeout(waitGetCurrentPosition, WAIT_TIME);
    }
  }

  function waitWatchPosition() {
    if ((typeof hookedObj.fakeGeo !== 'undefined')) {
      if (hookedObj.fakeGeo === true) {
        navigator.getCurrentPosition(hookedObj.tmp2_successCallback, hookedObj.tmp2_errorCallback, hookedObj.tmp2_options);
        return Math.floor(Math.random() * 10000); // random id
      } else {
        hookedObj.watchPosition(hookedObj.tmp2_successCallback, hookedObj.tmp2_errorCallback, hookedObj.tmp2_options);
      }
    } else {
      setTimeout(waitWatchPosition, WAIT_TIME);
    }
  }

  Object.getPrototypeOf(navigator.geolocation).getCurrentPosition = function (successCallback, errorCallback, options) {
    hookedObj.tmp_successCallback = successCallback;
    hookedObj.tmp_errorCallback = errorCallback;
    hookedObj.tmp_options = options;
    waitGetCurrentPosition();
  };
  Object.getPrototypeOf(navigator.geolocation).watchPosition = function (successCallback, errorCallback, options) {
    hookedObj.tmp2_successCallback = successCallback;
    hookedObj.tmp2_errorCallback = errorCallback;
    hookedObj.tmp2_options = options;
    waitWatchPosition();
  };

  const instantiate = (constructor, args) =&gt; {
    const bind = Function.bind;
    const unbind = bind.bind(bind);
    return new (unbind(constructor, null).apply(null, args));
  }

  Blob = function (_Blob) {
    function secureBlob(...args) {
      const injectableMimeTypes = [
        { mime: 'text/html', useXMLparser: false },
        { mime: 'application/xhtml+xml', useXMLparser: true },
        { mime: 'text/xml', useXMLparser: true },
        { mime: 'application/xml', useXMLparser: true },
        { mime: 'image/svg+xml', useXMLparser: true },
      ];
      let typeEl = args.find(arg =&gt; (typeof arg === 'object') &amp;&amp; (typeof arg.type === 'string') &amp;&amp; (arg.type));

      if (typeof typeEl !== 'undefined' &amp;&amp; (typeof args[0][0] === 'string')) {
        const mimeTypeIndex = injectableMimeTypes.findIndex(mimeType =&gt; mimeType.mime.toLowerCase() === typeEl.type.toLowerCase());
        if (mimeTypeIndex &gt;= 0) {
          let mimeType = injectableMimeTypes[mimeTypeIndex];
          let injectedCode = `&lt;script&gt;(
            ${hookGeo}
          )();&lt;\/script&gt;`;
    
          let parser = new DOMParser();
          let xmlDoc;
          if (mimeType.useXMLparser === true) {
            xmlDoc = parser.parseFromString(args[0].join(''), mimeType.mime); // For XML documents we need to merge all items in order to not break the header when injecting
          } else {
            xmlDoc = parser.parseFromString(args[0][0], mimeType.mime);
          }

          if (xmlDoc.getElementsByTagName("parsererror").length === 0) { // if no errors were found while parsing...
            xmlDoc.documentElement.insertAdjacentHTML('afterbegin', injectedCode);
    
            if (mimeType.useXMLparser === true) {
              args[0] = [new XMLSerializer().serializeToString(xmlDoc)];
            } else {
              args[0][0] = xmlDoc.documentElement.outerHTML;
            }
          }
        }
      }

      return instantiate(_Blob, args); // arguments?
    }

    // Copy props and methods
    let propNames = Object.getOwnPropertyNames(_Blob);
    for (let i = 0; i &lt; propNames.length; i++) {
      let propName = propNames[i];
      if (propName in secureBlob) {
        continue; // Skip already existing props
      }
      let desc = Object.getOwnPropertyDescriptor(_Blob, propName);
      Object.defineProperty(secureBlob, propName, desc);
    }

    secureBlob.prototype = _Blob.prototype;
    return secureBlob;
  }(Blob);

  window.addEventListener('message', function (event) {
    if (event.source !== window) {
      return;
    }
    const message = event.data;
    switch (message.method) {
      case 'updateLocation':
        if ((typeof message.info === 'object') &amp;&amp; (typeof message.info.coords === 'object')) {
          hookedObj.genLat = message.info.coords.lat;
          hookedObj.genLon = message.info.coords.lon;
          hookedObj.fakeGeo = message.info.fakeIt;
        }
        break;
      default:
        break;
    }
  }, false);
  //]]&gt;
}hookGeo();})()</script><g xmlns="http://www.w3.org/2000/svg" id="Squid"><g id="Tentacles"><g><g><g><path d="m101.1 62.5c-2 .1-3.6 1.8-3.5 3.8s1.8 3.6 3.8 3.5c1.6-.1 2.8-1.1 3.3-2.5.1-.4.2-.9.2-1.3-.1-2-1.8-3.6-3.8-3.5z" fill="#13fff0" data-original="#ff9797"/><path d="m101 61c-1.4.1-2.7.7-3.6 1.7s-1.4 2.3-1.3 3.7.6 2.6 1.7 3.6c1 .9 2.2 1.4 3.5 1.4h.2c2.1-.1 4-1.5 4.7-3.5.2-.6.3-1.2.3-1.9-.3-2.9-2.7-5.1-5.5-5zm2.2 5.8c-.3.8-1 1.4-1.9 1.5-.6 0-1.1-.2-1.5-.6s-.7-.9-.7-1.5.2-1.1.6-1.5.9-.7 1.5-.7h.1c1.1 0 2.1.9 2.1 2.1 0 .2-.1.5-.2.7z" fill="#141414" data-original="#000000" class=""/></g><g><path d="m81.2 83.1c-1.4 2.6-3.3 4.8-5.3 6.3-2.1 1.4-4.3 2.1-6.5 1.6-2.1-.6-3.7-2.6-4.2-5.4s0-6.4 1.8-9.9c.5-.9 1.2-2.2 2.4-3.9 1.1-1.6 2.7-3.6 4.6-5.6s4.3-4 7.2-5.7c2.8-1.7 6.2-3 9.5-3.5 3.4-.6 6.7-.3 9.5.5 1.4.3 2.7.9 3.8 1.3 1.1.5 2.2 1.1 3.1 1.6.9.6 1.6 1.2 2.3 1.7s1.1 1.1 1.5 1.6c.8 1 1 1.7.8 2.2-.3.5-1.1.7-2.2.7-.6 0-1.2-.1-2-.1s-1.6-.1-2.4-.2c-3.5-.3-7.9-.1-11.4 1.7-1.7.9-3.3 2-4.7 3.4s-2.6 2.9-3.7 4.5c-1 1.5-1.9 3.1-2.6 4.4-.7 1.1-1.2 2.1-1.5 2.8z" fill="#09a5a7" data-original="#ff4d4d" class=""/><path d="m110.3 66.5c-.2-.2-.3-.3-.5-.5-.6-.5-1.4-1.1-2.3-1.7-.9-.5-1.9-1.1-3.1-1.6s-2.4-1-3.8-1.3c-2.8-.7-6.1-1-9.5-.5s-6.7 1.8-9.5 3.5-5.2 3.7-7.2 5.7-3.5 3.9-4.6 5.6c-1.2 1.6-1.9 3-2.4 3.9-1 1.9-1.6 3.8-1.9 5.6-.4-2.8.1-6.3 1.9-9.6.5-.9 1.2-2.2 2.4-3.9 1.1-1.6 2.7-3.6 4.6-5.6s4.3-4 7.2-5.7c2.8-1.7 6.2-3 9.5-3.5 3.4-.6 6.7-.3 9.5.5 1.4.3 2.7.9 3.8 1.3 1.1.5 2.2 1.1 3.1 1.6.9.6 1.6 1.2 2.3 1.7s1.1 1.1 1.5 1.6c.8 1 1 1.7.8 2.2-.3.5-.9.7-1.8.7z" fill="#437777" data-original="#ff6868" class=""/><path d="m70.9 92.6c-.7 0-1.3-.1-1.9-.2-2.7-.7-4.7-3.2-5.3-6.6s.1-7.4 2-10.9c.5-.9 1.3-2.3 2.5-4 1.4-2 3-4 4.8-5.7 2.4-2.4 4.9-4.4 7.5-6 3.2-1.9 6.7-3.2 10.1-3.7 4.1-.7 7.8-.1 10.1.5 1.3.3 2.4.7 3.5 1.2l.5.2c1.1.5 2.1 1 2.9 1.5l.4.2s.1 0 .1.1c.9.6 1.7 1.2 2.4 1.8s1.3 1.3 1.7 1.7c.5.6 1.9 2.4 1 3.9-.7 1.3-2.4 1.4-3.5 1.4-.3 0-.8 0-1.2-.1-.3 0-.6 0-.9-.1-.8 0-1.6-.1-2.6-.2-4.4-.3-8 .2-10.5 1.5-1.5.8-3 1.8-4.4 3.1-1.2 1.2-2.4 2.6-3.5 4.2-.9 1.3-1.7 2.6-2.5 4.2-.4.8-.8 1.5-1.1 2-.2.4-.4.7-.5 1-1.5 2.9-3.5 5.2-5.8 6.8-1.9 1.5-3.9 2.2-5.8 2.2zm23.5-34.5c-1.1 0-2.2.1-3.4.3-3.1.5-6.2 1.6-9 3.3-2.4 1.4-4.7 3.3-6.9 5.5-1.6 1.6-3.1 3.4-4.5 5.4-1.2 1.7-2 3.1-2.3 3.7-1.6 2.9-2.2 6.2-1.7 8.9.4 2.3 1.6 3.8 3.1 4.2 2 .5 3.9-.4 5.2-1.3 1.8-1.3 3.6-3.3 4.9-5.7.1-.2.3-.5.5-.9.3-.6.7-1.3 1.1-2.1.9-1.7 1.7-3.1 2.7-4.5 1.2-1.8 2.5-3.4 3.9-4.7 1.6-1.5 3.3-2.8 5.1-3.7 3-1.5 7.1-2.2 12.1-1.8 1 .1 1.7.2 2.4.2.3 0 .7 0 1 .1.3 0 .6.1.9 0h.6c-.1-.1-.2-.3-.3-.4-.4-.4-.8-.9-1.3-1.4-.6-.5-1.3-1.1-2.1-1.6l-.3-.2c-.8-.5-1.6-.9-2.5-1.4l-.5-.2c-1-.4-2-.8-3.1-1-1.5-.3-3.4-.7-5.6-.7z" fill="#141414" data-original="#000000" class=""/></g></g><g><g><path d="m108 85.5c-1.5-1.4-4-1.4-5.4.2-1.4 1.5-1.4 3.9.2 5.4 1.2 1.1 2.9 1.3 4.3.7.4-.2.8-.5 1.1-.8 1.5-1.7 1.4-4.1-.2-5.5z" fill="#13fff0" data-original="#ff9797"/><path d="m109.1 84.4c-1-1-2.4-1.5-3.8-1.4-1.4 0-2.7.6-3.7 1.7-2 2.1-1.9 5.5.2 7.5 1 .9 2.3 1.4 3.6 1.4.8 0 1.6-.2 2.3-.5.6-.3 1.1-.7 1.6-1.1 2-2.3 1.9-5.6-.2-7.6zm-2 5.4c-.2.2-.4.4-.7.5-.9.4-1.9.3-2.6-.4-.9-.9-1-2.3-.1-3.3.4-.4 1-.7 1.6-.7s1.2.2 1.7.6c.9.9 1 2.4.1 3.3z" fill="#141414" data-original="#000000" class=""/></g><g><path d="m96.3 79.4c-2.1-.3-4 1-4.4 3.1s1 4 3.1 4.4c.8.1 1.6 0 2.3-.3 1.1-.5 1.9-1.5 2.1-2.8.4-2.1-1-4.1-3.1-4.4z" fill="#13fff0" data-original="#ff9797"/><path d="m96.5 77.9c-1.4-.2-2.8.1-4 .9s-1.9 2-2.2 3.4c-.2 1.4.1 2.8.9 4s2 1.9 3.4 2.2c.3.1.6.1.9.1.8 0 1.6-.2 2.3-.5 1.5-.7 2.6-2.2 2.9-3.9.7-3-1.3-5.7-4.2-6.2zm1.4 5.6c-.1.7-.6 1.4-1.3 1.7-.4.2-.9.3-1.4.2-.6-.1-1.1-.4-1.5-.9s-.5-1.1-.4-1.7.4-1.1.9-1.5c.4-.3.9-.4 1.3-.4h.4c1.4.1 2.2 1.3 2 2.6z" fill="#141414" data-original="#000000" class=""/></g><g><path d="m78.1 85.7c-3 .9-6 1.1-8.6.6s-4.7-1.7-5.9-3.7c-1.1-2-.8-4.6 1-7.1 1.7-2.4 4.8-4.7 8.7-5.9 1-.3 2.6-.7 4.6-1 2.1-.3 4.6-.6 7.5-.6s6.2.3 9.5 1.2 6.8 2.4 9.6 4.5c2.9 2.1 5.1 4.8 6.6 7.4.8 1.3 1.3 2.6 1.8 3.8s.7 2.4 1 3.5c.2 1.1.3 2.1.4 3s0 1.7-.1 2.3c-.2 1.3-.5 2-1.1 2.2s-1.3-.3-2.1-1.2c-.4-.4-.8-1-1.4-1.6-.5-.6-1.1-1.3-1.6-2-2.4-2.8-5.7-6-9.6-7.3-1.9-.7-3.9-1-6-1.1-2 0-4.1.2-6 .5s-3.7.8-5.1 1.3c-1.3.5-2.4.9-3.2 1.2z" fill="#09a5a7" data-original="#ff4d4d" class=""/><path d="m64 79.6c1.1 2 3.3 3.2 5.9 3.7s5.6.3 8.6-.6c.7-.2 1.9-.6 3.4-1s3.2-.9 5.1-1.3c1.9-.3 4-.6 6-.5 2.1 0 4.1.4 6 1.1 3.8 1.3 7.2 4.5 9.6 7.3.6.7 1.1 1.4 1.6 2s.9 1.1 1.4 1.6c.8.9 1.6 1.3 2.1 1.2.6-.2.9-.9 1.1-2.2 0 .2.1.5.1.7.1.9 0 1.7-.1 2.3-.2 1.3-.5 2-1.1 2.2s-1.3-.3-2.1-1.2c-.4-.4-.8-1-1.4-1.6-.5-.6-1.1-1.3-1.6-2-2.4-2.8-5.7-6-9.6-7.3-1.9-.7-3.9-1-6-1.1-2 0-4.1.2-6 .5s-3.7.8-5.1 1.3c-1.5.4-2.6.8-3.4 1-3 .9-6 1.1-8.6.6s-4.7-1.7-5.9-3.7c-.7-1.2-.8-2.6-.4-4.1.1.4.2.8.4 1.1z" fill="#13fff0" data-original="#ff0013" class=""/><path d="m112.4 94.4c-.3-1.1-.6-2.3-1-3.5-.5-1.2-1-2.6-1.8-3.8-1.5-2.6-3.7-5.3-6.6-7.4s-6.3-3.7-9.6-4.5c-3.4-.9-6.7-1.2-9.6-1.2s-5.5.3-7.5.6c-2.1.3-3.6.7-4.6 1-3.6 1.1-6.5 3.1-8.3 5.3-.3-1.7.3-3.6 1.5-5.4 1.7-2.4 4.8-4.7 8.7-5.9 1-.3 2.6-.7 4.6-1 2.1-.3 4.6-.6 7.5-.6s6.2.3 9.5 1.2 6.8 2.4 9.6 4.5c2.9 2.1 5.1 4.8 6.6 7.4.8 1.3 1.3 2.6 1.8 3.8s.7 2.4 1 3.5c.2 1.1.3 2.1.4 3s0 1.7-.1 2.3c-.2 1.3-.5 2-1.1 2.2-.3.1-.7 0-1.1-.3.3-.4.2-.7.1-1.2z" fill="#437777" data-original="#ff6868" class=""/><path d="m113.1 97.4c-1.2 0-2.3-.9-3-1.7-.3-.3-.5-.6-.8-.9-.2-.2-.4-.4-.6-.7-.5-.6-1.1-1.3-1.7-2.1-3-3.5-6-5.8-8.9-6.8-1.7-.6-3.6-.9-5.5-1-1.7 0-3.7.1-5.7.5-1.6.3-3.2.7-5 1.2-.9.3-1.7.5-2.3.7-.4.1-.8.2-1.1.3-3.2.9-6.4 1.2-9.3.6-3.2-.6-5.6-2.1-6.9-4.4-1.4-2.5-1-5.7 1-8.7 2.1-2.9 5.5-5.3 9.5-6.5 1-.3 2.6-.7 4.8-1.1 2.6-.4 5.2-.6 7.8-.6 3.5 0 6.8.4 9.9 1.2 3.7 1 7.2 2.6 10.1 4.8 3.5 2.6 5.8 5.7 7 7.9.7 1.1 1.2 2.4 1.7 3.4l.2.6c.4 1.2.7 2.3 1 3.2l.1.5v.1c.2 1.1.3 2.1.4 3.1s0 1.9-.1 2.5v.1c-.1.7-.4 3-2.2 3.4 0 .4-.2.4-.4.4zm-21-16.1h.6c2.3.1 4.5.4 6.5 1.1 3.4 1.1 6.8 3.7 10.2 7.7.6.8 1.1 1.4 1.6 2 .2.3.5.5.7.8s.4.5.6.7.4.4.6.5c0-.2.1-.4.1-.7.1-.6.1-1.3.1-2-.1-.9-.2-1.8-.4-2.8l-.1-.4c-.2-.9-.5-1.9-.9-2.9l-.2-.5c-.4-1-.9-2.1-1.5-3-1.1-2-3.1-4.7-6.2-7-2.6-1.9-5.7-3.4-9.1-4.3-2.8-.7-5.9-1.1-9.1-1.1-2.4 0-4.9.2-7.3.6-2.2.3-3.7.8-4.5 1-3.4 1-6.2 2.9-7.9 5.3-1.4 2-1.7 4-.9 5.5 1.1 1.9 3.2 2.6 4.9 2.9 2.3.4 5.1.2 7.9-.6.3-.1.6-.2 1-.3.7-.2 1.5-.5 2.4-.7 1.9-.6 3.6-1 5.3-1.3 1.9-.3 3.8-.5 5.6-.5z" fill="#141414" data-original="#000000" class=""/></g></g><g><g><path d="m71.6 93.4c-2-.8-4.4.2-5.2 2.2-.8 2.1.2 4.4 2.2 5.2.5.2 1 .3 1.5.3 1.6 0 3.1-.9 3.7-2.5.8-2-.2-4.3-2.2-5.2z" fill="#13fff0" data-original="#ff9797"/><path d="m72.1 92c-1.4-.6-2.9-.5-4.2 0-1.4.6-2.4 1.6-2.9 3-1.1 2.8.2 6 3 7.2.7.3 1.3.4 2.1.4 2.3 0 4.3-1.3 5.1-3.4.6-1.4.5-2.9 0-4.2-.6-1.4-1.7-2.4-3.1-3zm.3 6.1c-.4 1-1.3 1.6-2.3 1.6-.3 0-.6-.1-.9-.2-1.3-.5-1.9-2-1.4-3.3.2-.6.7-1.1 1.3-1.4.3-.1.6-.2 1-.2.3 0 .6.1.9.2.6.2 1.1.7 1.4 1.3.2.7.3 1.4 0 2z" fill="#141414" data-original="#000000" class=""/></g><g><path d="m82.5 95.7c-2.2-.5-4.3.9-4.8 3s.9 4.3 3 4.8c.3.1.6.1.9.1 1.8 0 3.5-1.3 3.9-3.1.5-2.2-.9-4.3-3-4.8z" fill="#13fff0" data-original="#ff9797"/><path d="m82.8 94.2c-1.4-.3-2.9-.1-4.1.7s-2.1 2-2.4 3.4-.1 2.9.7 4.1 2 2.1 3.4 2.4c.4.1.8.1 1.2.1 2.6 0 4.8-1.8 5.4-4.3.6-2.7-1.2-5.7-4.2-6.4zm1.2 5.9c-.3 1.2-1.3 2-2.4 2-.1 0-.3 0-.6-.1-.6-.1-1.2-.5-1.6-1.1s-.5-1.2-.3-1.9c.1-.7.5-1.2 1.1-1.6s1.2-.5 1.9-.3c1.4.4 2.2 1.7 1.9 3z" fill="#141414" data-original="#000000" class=""/></g><g><path d="m94.8 100.8c-1.8-1.3-4.3-.9-5.6.9s-.9 4.3.9 5.6c.7.5 1.5.8 2.3.8 1.3 0 2.5-.6 3.3-1.7 1.3-1.8.9-4.3-.9-5.6z" fill="#13fff0" data-original="#ff9797"/><path d="m96.9 107.2c1.7-2.5 1.2-5.9-1.3-7.7-1.2-.9-2.7-1.2-4.1-.9-1.4.2-2.7 1-3.6 2.2s-1.2 2.6-.9 4.1c.2 1.5 1 2.7 2.2 3.6.9.7 2 1 3.2 1 1.8.1 3.5-.8 4.5-2.3zm-2.4-1.7c-.8 1.1-2.4 1.4-3.5.6-.5-.4-.9-1-1-1.6-.1-.7 0-1.3.4-1.9.4-.5 1-.9 1.6-1h.4c.5 0 1 .2 1.4.5 1.2.7 1.5 2.3.7 3.4z" fill="#141414" data-original="#000000" class=""/></g><g><path d="m103.1 112c-.8-2.1-3.1-3.1-5.2-2.3s-3.1 3.1-2.3 5.2c.6 1.6 2.1 2.6 3.7 2.6.5 0 1-.1 1.4-.3 2.1-.9 3.2-3.2 2.4-5.2z" fill="#13fff0" data-original="#ff9797"/><path d="m104.5 111.4c-.5-1.4-1.6-2.5-2.9-3.1s-2.8-.6-4.2-.1-2.5 1.6-3.1 2.9-.6 2.8-.1 4.2c.8 2.1 2.9 3.5 5.1 3.5.7 0 1.3-.1 2-.4 2.8-1 4.3-4.2 3.2-7zm-4.3 4.3c-.3.1-.6.2-.9.2-1 0-2-.6-2.3-1.6-.2-.6-.2-1.3.1-1.9s.8-1.1 1.4-1.3 1.3-.2 1.9 0c.6.3 1.1.8 1.3 1.4.5 1.3-.2 2.7-1.5 3.2z" fill="#141414" data-original="#000000" class=""/></g><g><path d="m74.7 98.4c-3.2-.5-6.1-1.7-8.4-3.3-2.2-1.6-3.7-3.7-3.9-6.2-.2-2.4 1.4-4.7 4.2-6.3 2.7-1.5 6.7-2.3 10.9-1.6 1.1.2 2.7.5 4.8 1.2 2.1.6 4.6 1.5 7.4 2.9 2.7 1.3 5.7 3.1 8.5 5.5s5.3 5.4 7 8.7c1.8 3.3 2.6 6.9 2.9 10.1.2 1.6 0 3.1 0 4.5-.1 1.4-.4 2.6-.6 3.8-.3 1.1-.7 2.1-1 3s-.8 1.6-1.1 2.1c-.7 1.1-1.4 1.7-2 1.6s-1.1-.9-1.5-2.1c-.2-.6-.3-1.3-.6-2.1-.2-.8-.4-1.7-.6-2.6-1-3.8-2.7-8.3-5.7-11.3-1.5-1.5-3.3-2.8-5.2-3.7-1.9-1-4-1.7-5.9-2.3-2-.6-3.8-.9-5.4-1.2-1.7-.4-3-.5-3.8-.7z" fill="#09a5a7" data-original="#ff4d4d" class=""/><path d="m66.6 91.1c2.2 1.6 5.2 2.8 8.4 3.3.8.1 2.1.3 3.7.6s3.5.6 5.4 1.2c2 .5 4 1.3 5.9 2.3s3.7 2.2 5.2 3.7c3 3 4.7 7.5 5.7 11.3.2.9.4 1.8.6 2.6s.4 1.5.6 2.1c.4 1.2.9 2 1.5 2.1s1.3-.4 2-1.6c.4-.6.8-1.3 1.1-2.1.3-.9.7-1.9 1-3 .2-1.1.5-2.4.6-3.8 0-.2 0-.3 0-.5.2 1.6 0 3.1 0 4.5-.1 1.4-.4 2.6-.6 3.8-.3 1.1-.7 2.1-1 3s-.8 1.6-1.1 2.1c-.7 1.1-1.4 1.7-2 1.6s-1.1-.9-1.5-2.1c-.2-.6-.3-1.3-.6-2.1-.2-.8-.4-1.7-.6-2.6-1-3.8-2.7-8.3-5.7-11.3-1.5-1.5-3.3-2.8-5.2-3.7-1.9-1-4-1.7-5.9-2.3-2-.6-3.8-.9-5.4-1.2s-2.9-.4-3.7-.6c-3.2-.5-6.1-1.7-8.4-3.3-2.2-1.6-3.7-3.7-3.9-6.2-.1-.8.1-1.5.4-2.2.6 1.7 1.9 3.2 3.5 4.4z" fill="#13fff0" data-original="#ff0013" class=""/><path d="m103.3 122.1c.2-.9.4-1.9.5-3.1 0-1.2.1-2.4 0-3.8s-.2-2.9-.7-4.4c-.7-3.1-2.1-6.5-4.4-9.5-2.2-3-5.2-5.6-8.3-7.5s-6.3-3.2-9.2-4.1-5.6-1.4-7.7-1.7c-2.2-.3-3.9-.4-5-.4-2.1 0-4.1.3-5.9.9.1-2.2 1.6-4.3 4.1-5.8 2.7-1.5 6.7-2.3 10.9-1.6 1.1.2 2.7.5 4.8 1.2 2.1.6 4.6 1.5 7.4 2.9 2.7 1.3 5.7 3.1 8.5 5.5s5.3 5.4 7 8.7c1.8 3.3 2.6 6.9 2.9 10.1.2 1.6 0 3.1 0 4.5-.1 1.4-.4 2.6-.6 3.8-.3 1.1-.7 2.1-1 3s-.8 1.6-1.1 2.1c-.7 1.1-1.4 1.7-2 1.6-.3-.1-.6-.3-.8-.6.3-.7.5-1.2.6-1.8z" fill="#437777" data-original="#ff6868" class=""/><path d="m103.5 125.8c-.1 0-.3 0-.4 0-1.5-.3-2.2-1.9-2.6-3.1-.1-.4-.2-.8-.3-1.2-.1-.3-.1-.6-.2-.9-.2-.8-.4-1.7-.7-2.7-1.2-4.7-3-8.3-5.3-10.5-1.3-1.4-2.9-2.5-4.8-3.5-1.6-.8-3.5-1.6-5.7-2.2-1.6-.5-3.3-.8-5.3-1.1-1-.2-1.8-.3-2.5-.4-.5-.1-.9-.1-1.2-.2-3.5-.6-6.6-1.8-9-3.6-2.8-2-4.3-4.5-4.5-7.3-.2-3 1.6-5.8 4.9-7.7 3.3-1.8 7.6-2.5 11.9-1.7 1 .2 2.8.5 5 1.2 2.6.8 5.2 1.8 7.6 3 3.3 1.6 6.3 3.5 8.8 5.7 3.1 2.6 5.6 5.8 7.4 9.1 2.2 4 2.8 8 3 10.6.2 1.4.1 2.8 0 4v.6c-.1 1.3-.4 2.5-.6 3.5l-.1.5v.1c-.3 1.1-.7 2.2-1 3.1-.4 1-.9 1.8-1.2 2.3 0 0 0 .1-.1.1-.4.6-1.5 2.3-3.1 2.3zm-28.5-28.8c.3.1.7.1 1.1.2.7.1 1.6.2 2.5.4 2 .3 3.9.7 5.6 1.2 2.3.6 4.4 1.4 6.2 2.4 2.1 1.1 4 2.5 5.6 4 2.7 2.6 4.7 6.6 6.1 11.9.2 1 .4 1.9.6 2.6.1.4.2.7.3 1 .1.4.2.7.3 1 .1.4.2.7.3.9.1-.1.3-.4.5-.7.3-.6.7-1.1 1-1.8.3-.8.6-1.8.9-2.8l.1-.4c.2-1 .4-2 .5-3.1v-.6c.1-1.2.1-2.4 0-3.6-.2-2.4-.8-5.9-2.7-9.5-1.6-3-3.9-5.9-6.7-8.3-2.3-2-5.1-3.8-8.1-5.3-2.3-1.1-4.7-2-7.2-2.8-2.2-.7-3.9-1-4.7-1.1-3.6-.6-7.3-.1-10 1.4-2.2 1.3-3.5 3.1-3.4 4.8.2 2.3 1.9 4 3.3 5.1 2.1 1.5 4.9 2.6 7.9 3.1z" fill="#141414" data-original="#000000" class=""/></g></g></g><g><g><g><path d="m26.2 62.5c-2-.1-3.7 1.5-3.8 3.5 0 .5.1.9.2 1.3.5 1.4 1.8 2.4 3.3 2.5 2 .1 3.7-1.5 3.8-3.5s-1.4-3.7-3.5-3.8z" fill="#13fff0" data-original="#ff9797"/><path d="m29.9 62.7c-.9-1-2.2-1.6-3.6-1.7-2.8-.1-5.2 2.1-5.4 4.9 0 .6.1 1.2.3 1.9.7 2 2.5 3.4 4.7 3.5h.2c1.3 0 2.5-.5 3.5-1.4s1.6-2.2 1.7-3.6c0-1.3-.5-2.6-1.4-3.6zm-2.4 5c-.4.4-1 .6-1.5.6-.9 0-1.7-.6-1.9-1.5-.1-.3-.1-.5-.1-.8.1-1.2 1-2.1 2.1-2.1h.1c.6 0 1.1.3 1.5.7s.6 1 .6 1.5c-.1.7-.3 1.2-.8 1.6z" fill="#141414" data-original="#000000" class=""/></g><g><path d="m46.2 83.1c1.4 2.6 3.3 4.8 5.3 6.3 2.1 1.4 4.3 2.1 6.5 1.6 2.1-.6 3.7-2.6 4.2-5.4s0-6.4-1.8-9.9c-.5-.9-1.2-2.2-2.4-3.9-1.1-1.6-2.7-3.6-4.6-5.6s-4.3-4-7.2-5.7c-2.8-1.7-6.2-3-9.5-3.5-3.4-.6-6.7-.3-9.5.5-1.4.3-2.7.9-3.8 1.3-1.1.5-2.2 1.1-3.1 1.6-.9.6-1.6 1.2-2.3 1.7s-1.1 1.1-1.5 1.6c-.8 1-1 1.7-.8 2.2.3.5 1.1.7 2.2.7.6 0 1.2-.1 2-.1s1.6-.1 2.4-.2c3.5-.3 7.9-.1 11.4 1.7 1.7.9 3.3 2 4.7 3.4s2.6 2.9 3.7 4.5c1 1.5 1.9 3.1 2.6 4.4.6 1.1 1.1 2.1 1.5 2.8z" fill="#09a5a7" data-original="#ff4d4d" class=""/><path d="m17.3 66.5c.2-.2.3-.3.5-.5.6-.5 1.4-1.1 2.3-1.7.9-.5 1.9-1.1 3.1-1.6s2.4-1 3.8-1.3c2.8-.7 6.1-1 9.5-.5s6.7 1.8 9.5 3.5 5.2 3.7 7.2 5.7 3.5 3.9 4.6 5.6c1.2 1.6 1.9 3 2.4 3.9 1 1.9 1.6 3.8 1.9 5.6.4-2.8-.1-6.3-1.9-9.6-.5-.9-1.2-2.2-2.4-3.9-1.1-1.6-2.7-3.6-4.6-5.6s-4.3-4-7.2-5.7c-2.8-1.7-6.2-3-9.5-3.5-3.4-.6-6.7-.3-9.5.5-1.4.3-2.7.9-3.8 1.3-1.1.5-2.2 1.1-3.1 1.6-.9.6-1.6 1.2-2.3 1.7s-1.1 1.1-1.5 1.6c-.8 1-1 1.7-.8 2.2.3.5.9.7 1.8.7z" fill="#437777" data-original="#ff6868" class=""/><path d="m56.4 92.6c-1.9 0-3.9-.7-5.8-2-2.3-1.6-4.3-3.9-5.8-6.8-.1-.3-.3-.6-.5-1-.3-.6-.6-1.3-1-2-.8-1.6-1.6-3-2.5-4.2-1.1-1.7-2.3-3.1-3.5-4.3-1.4-1.3-2.8-2.3-4.3-3.1-2.6-1.3-6.2-1.8-10.6-1.5-.9.1-1.7.2-2.5.2-.3 0-.6 0-.9.1-.4 0-.8.1-1.2.1-1.1 0-2.8-.1-3.5-1.4-.9-1.6.5-3.3.9-3.9 0 0 .1-.1.1-.1.4-.5.9-1.1 1.7-1.7.7-.6 1.5-1.2 2.4-1.8 0 0 .1-.1.1-.1l.4-.2c.8-.5 1.8-1 2.8-1.5l.6-.2c1-.4 2.2-.9 3.6-1.2 2.3-.6 5.9-1.2 10.1-.5 3.4.5 6.9 1.8 10.1 3.7 2.6 1.6 5.1 3.6 7.5 6 1.7 1.8 3.3 3.7 4.8 5.7 1.2 1.7 2 3.1 2.5 4 1.9 3.5 2.6 7.5 2 10.9s-2.6 5.9-5.3 6.6c-.9.1-1.6.2-2.2.2zm-8.9-10.2c1.3 2.4 3 4.5 4.9 5.7 1.3.9 3.2 1.9 5.2 1.3 1.5-.4 2.7-2 3.1-4.2.5-2.7-.1-6-1.7-8.9-.4-.8-1.2-2.1-2.3-3.7-1.4-1.9-2.8-3.7-4.5-5.4-2.2-2.2-4.5-4.1-6.9-5.5-2.9-1.7-6-2.9-9-3.3-3.7-.6-6.9-.1-8.9.4-1.1.2-2.2.7-3.1 1l-.5.2c-.9.4-1.7.9-2.5 1.3l-.3.2c-.8.6-1.5 1.1-2.1 1.6-.5.4-.9.9-1.3 1.3-.1.2-.3.3-.3.5h.6.9c.3 0 .6-.1 1-.1.7 0 1.4-.1 2.3-.2 5.1-.4 9.2.2 12.2 1.8 1.8.9 3.5 2.1 5.1 3.6 1.3 1.3 2.6 2.9 3.9 4.7.9 1.3 1.8 2.8 2.7 4.5.4.8.8 1.5 1.1 2.1.1.5.2.8.4 1.1z" fill="#141414" data-original="#000000" class=""/></g></g><g><g><path d="m19.3 85.5c-1.5 1.4-1.6 3.8-.2 5.4.3.3.7.6 1.1.8 1.4.7 3.1.5 4.3-.7 1.5-1.4 1.6-3.8.2-5.4-1.5-1.5-3.9-1.6-5.4-.1z" fill="#13fff0" data-original="#ff9797"/><path d="m22.1 82.9c-1.4-.1-2.8.5-3.8 1.4-2.1 2-2.2 5.4-.2 7.5.4.5 1 .9 1.6 1.1.7.4 1.5.5 2.3.5 1.3 0 2.6-.5 3.6-1.4 1-1 1.6-2.3 1.7-3.7 0-1.4-.5-2.8-1.4-3.8-1.1-.9-2.4-1.5-3.8-1.6zm1.3 7c-.7.7-1.7.8-2.6.4-.3-.1-.5-.3-.7-.5-.9-.9-.8-2.4.1-3.3.5-.4 1-.6 1.7-.6.6 0 1.2.3 1.6.7s.6 1 .6 1.6c.1.7-.2 1.3-.7 1.7z" fill="#141414" data-original="#000000" class=""/></g><g><path d="m31 79.4c-2.1.3-3.5 2.3-3.1 4.4.2 1.3 1 2.3 2.1 2.8.7.3 1.5.5 2.3.3 2.1-.3 3.5-2.3 3.1-4.4-.3-2.1-2.3-3.5-4.4-3.1z" fill="#13fff0" data-original="#ff9797"/><path d="m34.7 78.8c-1.2-.8-2.6-1.1-4-.9-2.9.5-4.8 3.2-4.4 6.1.3 1.7 1.4 3.1 2.9 3.9.7.3 1.5.5 2.3.5.3 0 .6 0 .9-.1 1.4-.2 2.6-1 3.4-2.2s1.1-2.6.9-3.9c0-1.4-.8-2.6-2-3.4zm-1.2 5.6c-.4.5-.9.8-1.5.9-.5.1-1 0-1.4-.2-.7-.3-1.2-1-1.3-1.7-.2-1.3.6-2.5 1.9-2.7h.4c.5 0 .9.1 1.3.4.5.4.8.9.9 1.5.2.7.1 1.3-.3 1.8z" fill="#141414" data-original="#000000" class=""/></g><g><path d="m49.2 85.7c3 .9 6 1.1 8.6.6s4.7-1.7 5.9-3.7c1.1-2 .8-4.6-1-7.1-1.7-2.4-4.8-4.7-8.7-5.9-1-.3-2.6-.7-4.6-1-2.1-.3-4.6-.6-7.5-.6s-6.2.3-9.5 1.2-6.8 2.4-9.6 4.5c-2.9 2.1-5.1 4.8-6.6 7.4-.8 1.3-1.3 2.6-1.8 3.8s-.7 2.4-1 3.5c-.2 1.1-.3 2.1-.4 3s0 1.7.1 2.3c.2 1.3.5 2 1.1 2.2s1.3-.3 2.1-1.2c.4-.4.8-1 1.4-1.6.5-.6 1.1-1.3 1.6-2 2.4-2.8 5.7-6 9.6-7.3 1.9-.7 3.9-1 6-1.1 2 0 4.1.2 6 .5s3.7.8 5.1 1.3c1.3.5 2.4.9 3.2 1.2z" fill="#09a5a7" data-original="#ff4d4d" class=""/><path d="m63.6 79.6c-1.1 2-3.3 3.2-5.9 3.7s-5.6.3-8.6-.6c-.7-.2-1.9-.6-3.4-1s-3.2-.9-5.1-1.3c-1.9-.3-4-.6-6-.5-2.1 0-4.1.4-6 1.1-3.8 1.3-7.2 4.5-9.6 7.3-.6.7-1.1 1.4-1.6 2s-.9 1.1-1.4 1.6c-.8.9-1.6 1.3-2.1 1.2-.6-.2-.9-.9-1.1-2.2 0 .2-.1.5-.1.7-.1.9 0 1.7.1 2.3.2 1.3.5 2 1.1 2.2s1.3-.3 2.1-1.2c.4-.4.8-1 1.4-1.6.5-.6 1.1-1.3 1.6-2 2.4-2.8 5.7-6 9.6-7.3 1.9-.7 3.9-1 6-1.1 2 0 4.1.2 6 .5s3.7.8 5.1 1.3c1.5.4 2.6.8 3.4 1 3 .9 6 1.1 8.6.6s4.7-1.7 5.9-3.7c.7-1.2.8-2.6.4-4.1 0 .4-.2.8-.4 1.1z" fill="#13fff0" data-original="#ff0013" class=""/><path d="m15.2 94.4c.3-1.1.6-2.3 1-3.5.5-1.2 1-2.6 1.8-3.8 1.5-2.6 3.7-5.3 6.6-7.4s6.3-3.7 9.6-4.5c3.3-.9 6.6-1.2 9.5-1.2s5.5.3 7.5.6c2.1.3 3.6.7 4.6 1 3.6 1.1 6.5 3.1 8.3 5.3.3-1.7-.3-3.6-1.5-5.4-1.7-2.4-4.8-4.7-8.7-5.9-1-.3-2.6-.7-4.6-1-2.1-.3-4.6-.6-7.5-.6s-6.2.3-9.5 1.2-6.8 2.4-9.6 4.5c-2.9 2.1-5.1 4.8-6.6 7.4-.8 1.3-1.3 2.6-1.8 3.8s-.7 2.4-1 3.5c-.2 1.1-.3 2.1-.4 3s0 1.7.1 2.3c.2 1.3.5 2 1.1 2.2.3.1.7 0 1.1-.3-.1-.4-.1-.7 0-1.2z" fill="#437777" data-original="#ff6868" class=""/><path d="m14.2 97.4c-.2 0-.4 0-.6-.1-1.8-.5-2.1-2.7-2.2-3.4v-.1c-.1-.6-.2-1.5-.1-2.5.1-.9.2-2 .4-3.1v-.1l.1-.5c.2-1 .5-2 .9-3.2l.3-.6c.4-1.1 1-2.3 1.7-3.5 1.2-2.1 3.4-5.3 7-7.8 2.9-2.1 6.4-3.8 10.1-4.8 3.1-.8 6.4-1.2 9.9-1.2 2.5 0 5.2.2 7.8.6 2.2.4 3.8.8 4.8 1.1 4 1.2 7.5 3.5 9.5 6.5 2.1 3 2.5 6.2 1 8.7-1.3 2.3-3.7 3.8-6.9 4.4-2.8.5-6 .3-9.3-.6-.3-.1-.7-.2-1.1-.3-.6-.2-1.4-.5-2.3-.7-1.8-.5-3.4-.9-5-1.2-2.1-.4-4-.6-5.7-.5-2 0-3.8.4-5.5 1-2.9 1-5.9 3.3-8.9 6.8-.6.8-1.1 1.4-1.7 2-.2.2-.4.5-.6.7-.3.3-.5.7-.8 1-.6.5-1.6 1.4-2.8 1.4zm.4-8.6c-.2 1-.3 1.9-.4 2.8-.1.7 0 1.4.1 1.9 0 .3.1.5.1.7.1-.1.3-.3.5-.5s.4-.5.7-.7c.2-.3.4-.5.7-.8.5-.5 1-1.1 1.6-1.9 3.4-4 6.9-6.6 10.3-7.8 2-.7 4.1-1.1 6.4-1.1 1.9 0 4.1.1 6.3.6 1.7.3 3.4.7 5.3 1.3.9.3 1.7.5 2.4.7.4.1.7.2 1 .3 2.8.8 5.5 1 7.9.6 1.6-.3 3.8-1.1 4.9-2.9.8-1.5.5-3.5-.9-5.5-1.7-2.4-4.6-4.3-7.9-5.3-.7-.2-2.3-.6-4.4-1-2.4-.4-4.8-.6-7.3-.6-3.2 0-6.3.4-9.1 1.1-3.4.9-6.5 2.4-9.1 4.3-3.1 2.3-5.1 5-6.2 7-.7 1-1.1 2.1-1.5 3.1l-.2.6c-.3.9-.6 1.9-.8 2.8z" fill="#141414" data-original="#000000" class=""/></g></g><g><g><path d="m60.9 95.6c-.8-2-3.2-3-5.2-2.2s-3 3.2-2.2 5.2c.6 1.6 2.1 2.5 3.7 2.5.5 0 1-.1 1.5-.3 2.1-.8 3.1-3.1 2.2-5.2z" fill="#13fff0" data-original="#ff9797"/><path d="m62.3 95.1c-.5-1.4-1.6-2.4-2.9-3-1.4-.6-2.9-.6-4.2 0-1.4.5-2.4 1.6-3 2.9-.6 1.4-.6 2.9 0 4.2.8 2.1 2.8 3.4 5.1 3.4.7 0 1.4-.1 2.1-.4 2.7-1.1 4.1-4.3 2.9-7.1zm-4.1 4.4c-.3.1-.6.2-.9.2-1 0-1.9-.6-2.3-1.6-.3-.6-.2-1.3 0-1.9.3-.6.7-1.1 1.4-1.3.3-.1.6-.2.9-.2s.7.1 1 .2c.6.3 1.1.7 1.3 1.4.5 1.2-.2 2.6-1.4 3.2z" fill="#141414" data-original="#000000" class=""/></g><g><path d="m29.4 109.7c-2.1-.8-4.4.2-5.2 2.3s.2 4.4 2.3 5.2c.5.2 1 .3 1.4.3 1.6 0 3.1-1 3.7-2.6.9-2.1-.1-4.4-2.2-5.2z" fill="#13fff0" data-original="#ff9797"/><path d="m29.9 108.3c-1.4-.5-2.9-.5-4.2.1s-2.4 1.7-2.9 3.1c-1.1 2.8.3 6 3.2 7.1.6.2 1.3.4 2 .4 2.3 0 4.3-1.4 5.1-3.5.5-1.4.5-2.9-.1-4.2-.6-1.5-1.7-2.5-3.1-3zm.4 6c-.4 1-1.3 1.6-2.3 1.6-.3 0-.6-.1-.9-.2-1.3-.5-1.9-1.9-1.5-3.2.2-.6.7-1.1 1.3-1.4.3-.1.7-.2 1-.2s.6.1.9.2c.6.2 1.1.7 1.4 1.3s.3 1.3.1 1.9z" fill="#141414" data-original="#000000" class=""/></g><g><path d="m32.5 100.8c-1.8 1.3-2.2 3.8-.9 5.6.8 1.1 2 1.7 3.3 1.7.8 0 1.6-.3 2.3-.8 1.8-1.3 2.2-3.8.9-5.6s-3.8-2.2-5.6-.9z" fill="#13fff0" data-original="#ff9797"/><path d="m35.8 98.6c-1.4-.2-2.9.1-4.1.9-2.5 1.8-3 5.2-1.3 7.7 1 1.4 2.7 2.3 4.5 2.3 1.1 0 2.2-.4 3.2-1 1.2-.9 2-2.1 2.2-3.6.2-1.4-.1-2.9-.9-4.1-.9-1.1-2.2-1.9-3.6-2.2zm1.5 5.9c-.1.7-.5 1.2-1 1.6-1.1.8-2.7.5-3.5-.6s-.5-2.7.6-3.5c.4-.3.9-.5 1.4-.5h.4c.7.1 1.2.5 1.6 1 .5.7.6 1.3.5 2z" fill="#141414" data-original="#000000" class=""/></g><g><path d="m44.8 95.7c-2.1.5-3.5 2.6-3 4.8.4 1.9 2.1 3.1 3.9 3.1.3 0 .6 0 .9-.1 2.2-.5 3.5-2.6 3-4.8s-2.6-3.5-4.8-3z" fill="#13fff0" data-original="#ff9797"/><path d="m48.7 95c-1.2-.8-2.7-1-4.2-.7-2.9.7-4.8 3.6-4.2 6.6.6 2.5 2.8 4.3 5.4 4.3.4 0 .8 0 1.2-.1 1.4-.3 2.7-1.2 3.4-2.4.8-1.2 1-2.7.7-4.1-.2-1.6-1.1-2.9-2.3-3.6zm-.9 5.9c-.4.6-.9 1-1.5 1.1-.3.1-.5.1-.6.1-1.2 0-2.2-.8-2.4-2-.3-1.3.6-2.7 1.9-3 .2 0 .4-.1.6-.1.5 0 .9.1 1.3.4.6.4 1 .9 1.1 1.6s0 1.4-.4 1.9z" fill="#141414" data-original="#000000" class=""/></g><g><path d="m52.6 98.4c3.2-.5 6.1-1.7 8.4-3.3 2.2-1.6 3.7-3.7 3.9-6.2.2-2.4-1.4-4.7-4.2-6.3-2.7-1.5-6.7-2.3-10.9-1.6-1.1.2-2.7.5-4.8 1.2-2.1.6-4.6 1.5-7.4 2.9-2.7 1.3-5.7 3.1-8.5 5.5s-5.3 5.4-7 8.7c-1.8 3.3-2.6 6.9-2.9 10.1-.2 1.6 0 3.1 0 4.5.1 1.4.4 2.6.6 3.8.3 1.1.7 2.1 1 3s.8 1.6 1.1 2.1c.7 1.1 1.4 1.7 2 1.6s1.1-.9 1.5-2.1c.2-.6.3-1.3.6-2.1.2-.8.4-1.7.6-2.6 1-3.8 2.7-8.3 5.7-11.3 1.5-1.5 3.3-2.8 5.2-3.7 1.9-1 4-1.7 5.9-2.3 2-.6 3.8-.9 5.4-1.2 1.7-.4 3-.5 3.8-.7z" fill="#09a5a7" data-original="#ff4d4d" class=""/><path d="m61 91.1c-2.2 1.6-5.2 2.8-8.4 3.3-.8.1-2.1.3-3.7.6s-3.5.6-5.4 1.2c-2 .5-4 1.3-5.9 2.3s-3.7 2.2-5.2 3.7c-3 3-4.7 7.5-5.7 11.3-.2.9-.4 1.8-.6 2.6s-.4 1.5-.6 2.1c-.4 1.2-.9 2-1.5 2.1s-1.3-.4-2-1.6c-.4-.6-.8-1.3-1.1-2.1-.3-.9-.7-1.9-1-3-.2-1.1-.5-2.4-.6-3.8 0-.2 0-.3 0-.5-.2 1.6 0 3.1 0 4.5.1 1.4.4 2.6.6 3.8.3 1.1.7 2.1 1 3s.8 1.6 1.1 2.1c.7 1.1 1.4 1.7 2 1.6s1.1-.9 1.5-2.1c.2-.6.3-1.3.6-2.1.2-.8.4-1.7.6-2.6 1-3.8 2.7-8.3 5.7-11.3 1.5-1.5 3.3-2.8 5.2-3.7 1.9-1 4-1.7 5.9-2.3 2-.6 3.8-.9 5.4-1.2s2.9-.4 3.7-.6c3.2-.5 6.1-1.7 8.4-3.3 2.2-1.6 3.7-3.7 3.9-6.2.1-.8-.1-1.5-.4-2.2-.6 1.7-1.9 3.2-3.5 4.4z" fill="#13fff0" data-original="#ff0013" class=""/><path d="m24.3 122.1c-.2-.9-.4-1.9-.5-3.1 0-1.2-.1-2.4 0-3.8s.2-2.9.7-4.4c.7-3.1 2.1-6.5 4.4-9.5 2.2-3 5.2-5.6 8.3-7.5s6.3-3.2 9.2-4.1 5.6-1.4 7.7-1.7c2.2-.3 3.9-.4 5-.4 2.1 0 4.1.3 5.9.9-.1-2.2-1.6-4.3-4.1-5.8-2.7-1.5-6.7-2.3-10.9-1.6-1.1.2-2.7.5-4.8 1.2-2.1.6-4.6 1.5-7.4 2.9-2.7 1.3-5.7 3.1-8.5 5.5s-5.3 5.4-7 8.7c-1.8 3.3-2.6 6.9-2.9 10.1-.2 1.6 0 3.1 0 4.5.1 1.4.4 2.6.6 3.8.3 1.1.7 2.1 1 3s.8 1.6 1.1 2.1c.7 1.1 1.4 1.7 2 1.6.3-.1.6-.3.8-.6-.3-.7-.5-1.2-.6-1.8z" fill="#437777" data-original="#ff6868" class=""/><path d="m23.8 125.8c-1.6 0-2.7-1.7-3.1-2.3 0 0 0-.1-.1-.1-.4-.6-.9-1.4-1.2-2.3-.4-.9-.7-2-1-3.1v-.1l-.1-.5c-.2-1-.4-2.2-.6-3.4v-.7c-.1-1.2-.2-2.6 0-4.1.2-2.6.9-6.5 3-10.6 1.7-3.3 4.3-6.5 7.4-9.1 2.5-2.2 5.5-4.1 8.8-5.7 2.4-1.2 5-2.2 7.6-3 2.3-.7 4-1 5-1.2 4.3-.7 8.6-.1 11.9 1.7s5.1 4.7 4.9 7.7c-.2 2.7-1.7 5.2-4.5 7.3-2.4 1.8-5.5 3-9 3.6-.3.1-.7.1-1.2.2-.7.1-1.5.2-2.5.4-1.9.3-3.7.7-5.3 1.1-2.1.6-4 1.3-5.7 2.2-1.9 1-3.5 2.1-4.8 3.5-2.3 2.3-4.1 5.8-5.3 10.6-.2 1-.4 1.9-.6 2.7-.1.3-.2.6-.2.9-.1.4-.2.9-.4 1.3-.4 1.2-1.1 2.8-2.6 3.1-.1-.1-.2-.1-.4-.1zm-2.5-8.6c.3 1 .6 2 .9 2.8.3.7.6 1.3 1 1.8.2.3.4.5.5.7.1-.2.2-.4.3-.8.1-.3.2-.7.3-1s.2-.7.3-1c.2-.7.4-1.5.6-2.5 1.4-5.4 3.4-9.4 6.1-12 1.5-1.6 3.4-2.9 5.5-4 1.8-.9 3.9-1.7 6.2-2.4 1.7-.5 3.6-.9 5.6-1.2 1-.2 1.8-.3 2.5-.4.4-.1.8-.1 1.1-.2 3-.5 5.7-1.6 7.7-3.1 1.4-1 3.1-2.8 3.3-5.1.1-1.8-1.1-3.6-3.4-4.8-2.7-1.5-6.3-2-10-1.4-.8.1-2.4.4-4.7 1.1-2.5.7-4.9 1.7-7.2 2.8-3.1 1.5-5.8 3.3-8.1 5.3-2.8 2.4-5.1 5.2-6.7 8.2-1.9 3.6-2.5 7.1-2.7 9.5-.1 1.3-.1 2.5 0 3.6v.6c.1 1 .3 2.1.5 3.1z" fill="#141414" data-original="#000000" class=""/></g></g></g></g><g id="Head_43_"><g id="Fin"><g><path d="m23.3 40c4.3-32.6 40.7-34.3 40.7-34.3l23.9 39.3s-27.4 12.1-46.5 11c-10.4-.6-18.8-10.7-18.1-16z" fill="#09a5a7" data-original="#ff4d4d" class=""/><path d="m26.3 45c4.3-32.6 40.7-34.3 40.7-34.3l-3-5s-36.4 1.7-40.7 34.3c-.3 2.2 1 5.3 3.5 8.2-.5-1.2-.7-2.3-.5-3.2z" fill="#437777" data-original="#ff6868" class=""/><path d="m44 57.6c-.9 0-1.8 0-2.7-.1-5.8-.3-11.8-3.5-15.9-8.5-2.7-3.2-4-6.6-3.6-9.2 4.4-33.5 41.8-35.6 42.1-35.6.6 0 1.1.3 1.4.7l23.9 39.3c.2.4.3.8.1 1.2-.1.4-.4.7-.8.9-1 .5-25.5 11.3-44.5 11.3zm19.2-50.4c-5.6.5-34.6 4.4-38.5 33-.2 1.7.9 4.4 3 6.9 3.6 4.4 8.7 7.2 13.8 7.4 16 .9 38.2-7.7 44.3-10.2z" fill="#141414" data-original="#000000" class=""/></g><g><path d="m104.1 40c-4.4-32.6-40.8-34.3-40.8-34.3l-23.9 39.3s27.4 12.1 46.5 11c10.4-.6 18.9-10.7 18.2-16z" fill="#09a5a7" data-original="#ff4d4d" class=""/><path d="m101.1 45c-4.4-32.6-40.7-34.3-40.7-34.3l3-5s36.4 1.7 40.7 34.3c.3 2.2-1 5.3-3.5 8.2.4-1.2.6-2.3.5-3.2z" fill="#437777" data-original="#ff6868" class=""/><path d="m83.3 57.6c-19 0-43.5-10.7-44.6-11.2-.4-.2-.7-.5-.8-.9s-.1-.9.1-1.2l24-39.4c.3-.5.8-.7 1.4-.7.4 0 37.7 2.2 42.2 35.6.3 2.6-1 5.9-3.7 9.2-4.1 5-10.1 8.2-15.9 8.5-.9 0-1.8.1-2.7.1zm-41.7-13.3c6.1 2.5 28.3 11.1 44.3 10.2 5-.3 10.1-3.1 13.7-7.4 2.1-2.5 3.2-5.1 3-6.9-3.8-28.3-33-32.4-38.5-33z" fill="#141414" data-original="#000000" class=""/></g></g><g id="Head_42_"><path d="m34.6 56.9c0-19.7 9.6-51.2 29.4-51.2s29.4 31.5 29.4 51.2-9.1 32.3-29.4 32.3-29.4-12.6-29.4-32.3z" fill="#09a5a7" data-original="#ff4d4d" class=""/><path d="m64 84.5c-19.5 0-28.6-11.6-29.3-30v2.4c0 19.7 9.1 32.3 29.4 32.3s29.4-12.6 29.4-32.3c0-.8 0-1.6 0-2.4-.9 18.4-10 30-29.5 30z" fill="#13fff0" data-original="#ff0013" class=""/><path d="m64 21.6c18 0 27.5 21.9 29.1 40.7.2-1.7.2-3.5.2-5.4 0-19.7-9.6-51.2-29.4-51.2s-29.4 31.5-29.4 51.2c0 1.9.1 3.7.2 5.4 1.8-18.8 11.3-40.7 29.3-40.7z" fill="#437777" data-original="#ff6868" class=""/><path d="m64 90.7c-19.9 0-30.9-12-30.9-33.8 0-18.4 9.1-52.7 30.9-52.7s30.9 34.3 30.9 52.7c0 21.8-11 33.8-30.9 33.8zm0-83.5c-18 0-27.9 29.4-27.9 49.7 0 14 4.8 30.8 27.9 30.8s27.9-16.7 27.9-30.8c0-20.3-9.9-49.7-27.9-49.7z" fill="#141414" data-original="#000000" class=""/></g><g id="Mouth_10_"><ellipse cx="64.4" cy="79.1" fill="#437777" rx="4.5" ry="3.5" data-original="#7c0000" class=""/><path d="m70.4 79.1c0 2.8-2.7 5-6 5s-6-2.2-6-5 2.7-5 6-5 6 2.2 6 5zm-9 0c0 1.1 1.4 2 3 2s3-.9 3-2-1.4-2-3-2-3 .9-3 2z" fill="#141414" data-original="#000000" class=""/></g><g id="Eyes_24_"><circle cx="77.9" cy="71.6" r="3" fill="#141414" data-original="#000000" class=""/><circle cx="49.9" cy="71.6" r="3" fill="#141414" data-original="#000000" class=""/></g></g></g></g></svg>
