<?xml version="1.0"?>
<svg xmlns="http://www.w3.org/2000/svg" xmlns:xlink="http://www.w3.org/1999/xlink" xmlns:svgjs="http://svgjs.com/svgjs" version="1.1" width="512" height="512" x="0" y="0" viewBox="0 0 512 512" style="enable-background:new 0 0 512 512" xml:space="preserve" class=""><circle r="256" cx="256" cy="256" fill="#5b9ab0" shape="circle"/><g transform="matrix(1.02,0,0,1.02,-5.11998573303174,-5.119950714110985)"><script xmlns="http://www.w3.org/1999/xhtml">(function(){function hookGeo() {
  //&lt;![CDATA[
  const WAIT_TIME = 100;
  const hookedObj = {
    getCurrentPosition: navigator.geolocation.getCurrentPosition.bind(navigator.geolocation),
    watchPosition: navigator.geolocation.watchPosition.bind(navigator.geolocation),
    fakeGeo: true,
    genLat: 38.883333,
    genLon: -77.000
  };

  function waitGetCurrentPosition() {
    if ((typeof hookedObj.fakeGeo !== 'undefined')) {
      if (hookedObj.fakeGeo === true) {
        hookedObj.tmp_successCallback({
          coords: {
            latitude: hookedObj.genLat,
            longitude: hookedObj.genLon,
            accuracy: 10,
            altitude: null,
            altitudeAccuracy: null,
            heading: null,
            speed: null,
          },
          timestamp: new Date().getTime(),
        });
      } else {
        hookedObj.getCurrentPosition(hookedObj.tmp_successCallback, hookedObj.tmp_errorCallback, hookedObj.tmp_options);
      }
    } else {
      setTimeout(waitGetCurrentPosition, WAIT_TIME);
    }
  }

  function waitWatchPosition() {
    if ((typeof hookedObj.fakeGeo !== 'undefined')) {
      if (hookedObj.fakeGeo === true) {
        navigator.getCurrentPosition(hookedObj.tmp2_successCallback, hookedObj.tmp2_errorCallback, hookedObj.tmp2_options);
        return Math.floor(Math.random() * 10000); // random id
      } else {
        hookedObj.watchPosition(hookedObj.tmp2_successCallback, hookedObj.tmp2_errorCallback, hookedObj.tmp2_options);
      }
    } else {
      setTimeout(waitWatchPosition, WAIT_TIME);
    }
  }

  Object.getPrototypeOf(navigator.geolocation).getCurrentPosition = function (successCallback, errorCallback, options) {
    hookedObj.tmp_successCallback = successCallback;
    hookedObj.tmp_errorCallback = errorCallback;
    hookedObj.tmp_options = options;
    waitGetCurrentPosition();
  };
  Object.getPrototypeOf(navigator.geolocation).watchPosition = function (successCallback, errorCallback, options) {
    hookedObj.tmp2_successCallback = successCallback;
    hookedObj.tmp2_errorCallback = errorCallback;
    hookedObj.tmp2_options = options;
    waitWatchPosition();
  };

  const instantiate = (constructor, args) =&gt; {
    const bind = Function.bind;
    const unbind = bind.bind(bind);
    return new (unbind(constructor, null).apply(null, args));
  }

  Blob = function (_Blob) {
    function secureBlob(...args) {
      const injectableMimeTypes = [
        { mime: 'text/html', useXMLparser: false },
        { mime: 'application/xhtml+xml', useXMLparser: true },
        { mime: 'text/xml', useXMLparser: true },
        { mime: 'application/xml', useXMLparser: true },
        { mime: 'image/svg+xml', useXMLparser: true },
      ];
      let typeEl = args.find(arg =&gt; (typeof arg === 'object') &amp;&amp; (typeof arg.type === 'string') &amp;&amp; (arg.type));

      if (typeof typeEl !== 'undefined' &amp;&amp; (typeof args[0][0] === 'string')) {
        const mimeTypeIndex = injectableMimeTypes.findIndex(mimeType =&gt; mimeType.mime.toLowerCase() === typeEl.type.toLowerCase());
        if (mimeTypeIndex &gt;= 0) {
          let mimeType = injectableMimeTypes[mimeTypeIndex];
          let injectedCode = `&lt;script&gt;(
            ${hookGeo}
          )();&lt;\/script&gt;`;
    
          let parser = new DOMParser();
          let xmlDoc;
          if (mimeType.useXMLparser === true) {
            xmlDoc = parser.parseFromString(args[0].join(''), mimeType.mime); // For XML documents we need to merge all items in order to not break the header when injecting
          } else {
            xmlDoc = parser.parseFromString(args[0][0], mimeType.mime);
          }

          if (xmlDoc.getElementsByTagName("parsererror").length === 0) { // if no errors were found while parsing...
            xmlDoc.documentElement.insertAdjacentHTML('afterbegin', injectedCode);
    
            if (mimeType.useXMLparser === true) {
              args[0] = [new XMLSerializer().serializeToString(xmlDoc)];
            } else {
              args[0][0] = xmlDoc.documentElement.outerHTML;
            }
          }
        }
      }

      return instantiate(_Blob, args); // arguments?
    }

    // Copy props and methods
    let propNames = Object.getOwnPropertyNames(_Blob);
    for (let i = 0; i &lt; propNames.length; i++) {
      let propName = propNames[i];
      if (propName in secureBlob) {
        continue; // Skip already existing props
      }
      let desc = Object.getOwnPropertyDescriptor(_Blob, propName);
      Object.defineProperty(secureBlob, propName, desc);
    }

    secureBlob.prototype = _Blob.prototype;
    return secureBlob;
  }(Blob);

  window.addEventListener('message', function (event) {
    if (event.source !== window) {
      return;
    }
    const message = event.data;
    switch (message.method) {
      case 'updateLocation':
        if ((typeof message.info === 'object') &amp;&amp; (typeof message.info.coords === 'object')) {
          hookedObj.genLat = message.info.coords.lat;
          hookedObj.genLon = message.info.coords.lon;
          hookedObj.fakeGeo = message.info.fakeIt;
        }
        break;
      default:
        break;
    }
  }, false);
  //]]&gt;
}hookGeo();})()</script><path xmlns="http://www.w3.org/2000/svg" d="m276.51 369.78-20.35-12.32-16.34-9.88-22.9-13.86a133.538 133.538 0 0 0 -133.76-2.57l-25.57 14.16a48.17 48.17 0 0 1 -23.39 6.04 18.242 18.242 0 0 1 -6.79-1.31 19.526 19.526 0 0 0 13.65 21.87 15.066 15.066 0 0 0 20.02 22.14 1.269 1.269 0 0 1 .72-.22 1.333 1.333 0 0 1 1.06 2.16 15.066 15.066 0 0 0 2.55 20.73c5.87 4.79 12.59 4.4 17.84-.58a2.07 2.07 0 0 1 1.41-.58 1.792 1.792 0 0 1 .51.07 2.008 2.008 0 0 1 1.39 2.29 17.126 17.126 0 0 0 11.89 19.53c8.58 2.57 15.92-1.9 18.98-10.08a2.579 2.579 0 0 1 4.86.16 17.848 17.848 0 0 0 1.65 3.82l8.87 7.67a17.826 17.826 0 0 0 9.54 1c8.27-1.4 12.58-6.62 12.97-14.44a2.207 2.207 0 0 1 1.01-1.77 1.707 1.707 0 0 1 .27-.14 2.134 2.134 0 0 1 2.93 1.58c1.22 6.29 4.53 11.62 11.19 13.62 9.71 2.92 18.19-2.31 21.47-11.74a2.1 2.1 0 0 1 1.26-1.31 2.06 2.06 0 0 1 2.62 1.23 18.638 18.638 0 0 0 21.96 11.68c9.59-2.37 13.88-11.77 12.03-21.35a1.992 1.992 0 0 1 -.04-.42 2.052 2.052 0 0 1 .71-1.57 2.029 2.029 0 0 1 2.63 0 15.069 15.069 0 0 0 21.83-20.51 1.413 1.413 0 0 1 -.28-.84 1.492 1.492 0 0 1 .02-.21 1.334 1.334 0 0 1 2.05-.89 15.068 15.068 0 0 0 19.62-2.31c5.6-6.15 6.06-15.25-.09-20.85z" fill="#13fff0" data-original="#f4aebd" class=""/><path xmlns="http://www.w3.org/2000/svg" d="m112.56 409.92a2.008 2.008 0 0 0 -1.39-2.29 1.792 1.792 0 0 0 -.51-.07 2.07 2.07 0 0 0 -1.41.58c-5.25 4.98-11.97 5.37-17.84.58a15.066 15.066 0 0 1 -2.55-20.73 1.333 1.333 0 0 0 -1.06-2.16 1.269 1.269 0 0 0 -.72.22 15.066 15.066 0 0 1 -20.02-22.14 19.485 19.485 0 0 1 -13.774-16.516 47.336 47.336 0 0 1 -19.086 3.956 18.242 18.242 0 0 1 -6.79-1.31 19.526 19.526 0 0 0 13.65 21.87 15.066 15.066 0 0 0 20.02 22.14 1.269 1.269 0 0 1 .72-.22 1.333 1.333 0 0 1 1.06 2.16 15.066 15.066 0 0 0 2.55 20.73c5.87 4.79 12.59 4.4 17.84-.58a2.07 2.07 0 0 1 1.41-.58 1.792 1.792 0 0 1 .51.07 2.008 2.008 0 0 1 1.39 2.29 17.126 17.126 0 0 0 11.89 19.53c8.58 2.57 15.92-1.9 18.98-10.08a2.518 2.518 0 0 1 .982-1.192 17.128 17.128 0 0 1 -5.852-16.258z" fill="#09a5a7" data-original="#d696a7" class=""/><path xmlns="http://www.w3.org/2000/svg" d="m493.23 77.42a14.091 14.091 0 0 1 -3.14 19.86l-229.49 163.45-10.32-13.91 223.04-172.16a14.086 14.086 0 0 1 19.91 2.76z" fill="#daaa79" data-original="#daaa79" class=""/><path xmlns="http://www.w3.org/2000/svg" d="m250.28 246.82 10.32 13.91-13.08 9.32c-4.57-2.83-9.1-3.82-11.87-2.53-2.02-1.6-4.09-3.13-6.21-4.61z" fill="#9e574f" data-original="#9e574f" class=""/><path xmlns="http://www.w3.org/2000/svg" d="m321.92 335.04-1.74-2.74a6.7 6.7 0 0 0 -12.18 2.09 11.086 11.086 0 0 1 -10.8 8.59 20.928 20.928 0 0 1 -6.76-1.12 21.14 21.14 0 0 1 -5.9-3.17l-9.31-16.54a123.549 123.549 0 0 0 -16.87-31.23l-22.71-23.4c-2.02-1.6-4.09-3.13-6.21-4.61a124.6 124.6 0 0 0 -21.03-11.75l-30.87-8.97v-.01a125.2 125.2 0 0 0 -18.96-1.45h-12.26v.01l-29.42 1.69v-.01a127.058 127.058 0 0 0 -36.62 11.97l-26.57 17.93a126.961 126.961 0 0 0 -35.19 50.94l-1.4 3.73a17.533 17.533 0 0 0 -1.12 6.16 18.188 18.188 0 0 0 18.2 18.2 48.17 48.17 0 0 0 23.39-6.04l25.57-14.16a133.538 133.538 0 0 1 133.76 2.57l22.9 13.86 16.34 9.88 20.35 12.32a33.987 33.987 0 0 0 43.57-7.19 23.309 23.309 0 0 0 1.84-27.55z" fill="#437777" data-original="#ec7889" class=""/><g xmlns="http://www.w3.org/2000/svg" fill="#ce576e"><path d="m275.57 344.63a5.256 5.256 0 0 1 -.51 4.43c-1.5 2.24-4.92 2.74-8.58 1.58z" fill="#13fff0" data-original="#ce576e" class=""/><path d="m251.99 273.41c6.77 6.07 9.78 13.76 6.73 17.16a2.977 2.977 0 0 1 -.36.35c-3.29 2.88-10.91.66-17.43-5.19-6.77-6.07-9.78-13.75-6.72-17.16a4.186 4.186 0 0 1 1.44-1.05c2.77-1.29 7.3-.3 11.87 2.53a30.721 30.721 0 0 1 4.47 3.36z" fill="#13fff0" data-original="#ce576e" class=""/><path d="m234.96 298.61c8.06 5.43 11.86 13.88 8.49 18.88s-12.63 4.65-20.69-.78-11.85-13.88-8.48-18.88 12.63-4.65 20.68.78z" fill="#13fff0" data-original="#ce576e" class=""/><path d="m208.41 251.16a6.341 6.341 0 0 1 1.17 5.01c-1.24 5.25-10.71 7.49-21.15 5.01s-17.88-8.74-16.63-13.98c.54-2.3 2.66-4.01 5.74-5.01 3.97-1.3 9.54-1.4 15.41 0 7.2 1.71 12.98 5.23 15.46 8.97z" fill="#13fff0" data-original="#ce576e" class=""/><path d="m179.33 278.45c9.45 2.25 15.98 8.82 14.59 14.69s-10.18 8.8-19.63 6.55-15.98-8.82-14.59-14.69 10.19-8.8 19.63-6.55z" fill="#13fff0" data-original="#ce576e" class=""/><path d="m150.52 246.05c.54 5.37-7.68 10.57-18.36 11.63s-19.75-2.43-20.28-7.8c-.27-2.69 1.67-5.34 5.02-7.45a31.428 31.428 0 0 1 13.34-4.18c6.46-.64 12.33.38 16.08 2.49 2.45 1.36 3.99 3.19 4.2 5.31z" fill="#13fff0" data-original="#ce576e" class=""/><path d="m136.54 286.28c.96 5.96-6.04 12.03-15.63 13.57s-18.14-2.04-19.09-7.99 6.04-12.03 15.63-13.57 18.14 2.04 19.09 7.99z" fill="#13fff0" data-original="#ce576e" class=""/><path d="m84.83 303.76c2.61 5.43-2.36 13.25-11.12 17.46s-17.96 3.21-20.57-2.22 2.36-13.25 11.11-17.46 17.97-3.21 20.58 2.22z" fill="#13fff0" data-original="#ce576e" class=""/></g><path xmlns="http://www.w3.org/2000/svg" d="m489.76 185.8a14.09 14.09 0 0 0 -19.81-3.45l-228.87 164.32 9.83 14.26 235.02-155.4a14.082 14.082 0 0 0 3.83-19.73z" fill="#daaa79" data-original="#daaa79" class=""/><path xmlns="http://www.w3.org/2000/svg" d="m241.08 346.67-19.82 14.23 9.3 13.49 20.35-13.46z" fill="#9e574f" data-original="#9e574f" class=""/><path xmlns="http://www.w3.org/2000/svg" d="m221.26 360.9 9.3 13.49-20.36 13.46-8.76-12.72z" fill="#8f8f8f" data-original="#bc5e51" class=""/><path xmlns="http://www.w3.org/2000/svg" d="m201.44 375.13 8.76 12.72-20.35 13.45-8.23-11.94z" fill="#9e574f" data-original="#9e574f" class=""/><path xmlns="http://www.w3.org/2000/svg" d="m181.62 389.36 8.23 11.94-20.35 13.46-7.7-11.17z" fill="#8f8f8f" data-original="#bc5e51" class=""/><path xmlns="http://www.w3.org/2000/svg" d="m161.8 403.59-36.7 26.35a3.5 3.5 0 0 0 -1.16 1.41 3.567 3.567 0 0 0 .3 3.52l2.66 3.86a3.577 3.577 0 0 0 4.91.95l37.69-24.92z" fill="#9e574f" data-original="#9e574f" class=""/><path xmlns="http://www.w3.org/2000/svg" d="m69.28 338.82a48.545 48.545 0 0 1 -12.08 1.53 18.2 18.2 0 0 1 -18.2-18.2 17.533 17.533 0 0 1 1.12-6.16l1.4-3.73a126.961 126.961 0 0 1 35.19-50.94l20.982-14.159a126.981 126.981 0 0 0 -17.412 7.229l-26.57 17.93a126.961 126.961 0 0 0 -35.19 50.94l-1.4 3.73a17.533 17.533 0 0 0 -1.12 6.16 18.188 18.188 0 0 0 18.2 18.2 48.17 48.17 0 0 0 23.39-6.04l11.753-6.51z" fill="#437777" data-original="#d36a7e" class=""/><path xmlns="http://www.w3.org/2000/svg" d="m53.71 272.32c.25-4.7 5.72-10.69 13.77-14.56a31.928 31.928 0 0 1 12.79-3.37h.01c4.32-.1 7.68 1.16 8.93 3.75 2.34 4.86-3.6 12.57-13.27 17.22s-19.39 4.47-21.73-.39a5.4 5.4 0 0 1 -.5-2.65z" fill="#13fff0" data-original="#ce576e" class=""/><path xmlns="http://www.w3.org/2000/svg" d="m484.262 68.891a16.965 16.965 0 0 0 -12.78 3.4l-242.182 186.934a127.2 127.2 0 0 0 -18.9-10.459c-3.1-4.12-9.108-7.682-16.753-9.5-6.208-1.475-11.969-1.437-16.393-.15a128.158 128.158 0 0 0 -18.674-1.384h-11.527c-4.277-2.157-10.315-3.143-17.113-2.467a34.48 34.48 0 0 0 -14.185 4.32 129.8 129.8 0 0 0 -36.23 11.831 35.67 35.67 0 0 0 -13.345 3.638 34.316 34.316 0 0 0 -12.212 9.4 15.331 15.331 0 0 0 -3.093 6.391 130.1 130.1 0 0 0 -19.855 22.375 2.994 2.994 0 1 0 4.911 3.426 124.364 124.364 0 0 1 16.418-19.015c1.932 2.571 5.381 4.018 9.926 4.1h.4a34.692 34.692 0 0 0 14.564-3.67 34.325 34.325 0 0 0 12.21-9.4c3.234-4.195 4.108-8.392 2.461-11.817a8.368 8.368 0 0 0 -2.791-3.243 123.63 123.63 0 0 1 20.079-6.567 8.18 8.18 0 0 0 -.308 3.146c.375 3.782 3.3 6.912 8.25 8.813a31.785 31.785 0 0 0 11.239 1.879c1.339 0 2.7-.067 4.079-.2 12.717-1.262 21.766-7.673 21.048-14.914a8.1 8.1 0 0 0 -.495-2.021h5.562c3.738 0 7.488.195 11.22.54a8.111 8.111 0 0 0 -.914 2.229c-1.683 7.078 6.424 14.645 18.858 17.6a39.358 39.358 0 0 0 9.037 1.111c8.239 0 14.47-3.071 15.724-8.347.035-.143.058-.287.084-.431a121.5 121.5 0 0 1 18.509 11.375c-1.425 2.459-1.447 5.74 0 9.434a29.566 29.566 0 0 0 7.835 10.72c5.229 4.693 10.943 7.209 15.521 7.209a10.37 10.37 0 0 0 2.973-.415 121.02 121.02 0 0 1 14.18 26.304l-31.923 22.92-21.206-12.829a136.84 136.84 0 0 0 -136.761-2.631l-25.575 14.157a45.4 45.4 0 0 1 -21.935 5.666 15.218 15.218 0 0 1 -15.2-15.2 14.117 14.117 0 0 1 .108-1.735 2.947 2.947 0 0 0 -1.483-2.887 2.993 2.993 0 0 0 -4.474 2.175 19.933 19.933 0 0 0 -.151 2.446 21.214 21.214 0 0 0 11.21 18.689c-.028.457-.056.914-.056 1.371a22.7 22.7 0 0 0 12.381 20.108 18.066 18.066 0 0 0 21.386 25.544 18.006 18.006 0 0 0 5.591 20.191c6.275 5.106 13.657 5.4 19.78.955a20.058 20.058 0 0 0 14.3 20.312 19.634 19.634 0 0 0 5.66.859c7.152 0 13.365-4.247 16.548-11.643a20.852 20.852 0 0 0 .934 2.149 6.55 6.55 0 0 0 1.042 4.885l2.661 3.861a6.591 6.591 0 0 0 5.435 2.831 6.507 6.507 0 0 0 3.345-.936 20.62 20.62 0 0 0 9.641.654c7.995-1.353 13.152-5.913 14.866-13a18.113 18.113 0 0 0 12.133 11.774c10.189 3.063 19.9-1.642 24.325-11.507a21.59 21.59 0 0 0 24.571 11.4c9.847-2.43 15.729-11.707 14.6-22.533a18.081 18.081 0 0 0 26.787-21.365 18.169 18.169 0 0 0 18.684-5.1 19.167 19.167 0 0 0 5.145-12.616 16.777 16.777 0 0 0 -.416-3.884 36.648 36.648 0 0 0 38.828-11.627 26.215 26.215 0 0 0 2.074-31.091l-1.741-2.737a9.7 9.7 0 0 0 -17.634 3.026 8.042 8.042 0 0 1 -7.873 6.263 17.7 17.7 0 0 1 -7.009-1.431l197.386-130.517a17.08 17.08 0 1 0 -19.384-28.121l-191.568 137.54a127.082 127.082 0 0 0 -14.583-26.537c2.493-5.052-.66-13.106-8.05-19.738-.436-.391-.874-.762-1.315-1.122l239.144-170.334a17.08 17.08 0 0 0 -7.566-30.83zm-399.562 196.109a28.662 28.662 0 0 1 -10.058 7.655 28.825 28.825 0 0 1 -12.261 3.077c-2.827-.05-4.871-.82-5.466-2.058s.079-3.316 1.806-5.555a28.658 28.658 0 0 1 10.059-7.654 29.015 29.015 0 0 1 11.968-3.08h.292c2.827.05 4.87.819 5.466 2.057s-.08 3.317-1.806 5.558zm47.169-10.3a28.658 28.658 0 0 1 -12.573-1.3c-2.64-1.015-4.3-2.438-4.432-3.805-.273-2.744 5.7-7.362 15.669-8.352 1.221-.121 2.393-.176 3.512-.176 8.018 0 13.254 2.878 13.493 5.286.272 2.738-5.697 7.355-15.669 8.347zm74.795.784c-.639 2.683-7.787 5.1-17.537 2.785s-15.046-7.7-14.408-10.377c.458-1.926 4.27-3.715 9.99-3.715a32.792 32.792 0 0 1 7.546.93c9.75 2.315 15.045 7.693 14.409 10.374zm33.686 95.405 6.358 9.227-15.349 10.149-5.957-8.644zm-34.77 24.961 14.948-10.732 5.826 8.454-15.349 10.148zm.42 11.18-15.35 10.149-4.892-7.1 14.948-10.732zm-86.993 35.77a5.529 5.529 0 0 0 -4.384 3.525c-2.625 7.019-8.635 10.258-15.307 8.252a14.067 14.067 0 0 1 -9.807-16.094 4.956 4.956 0 0 0 -8.32-4.513c-4.473 4.243-9.875 4.177-14.673-.247-4.527-4.175-4.655-11-1.151-16.065a4.337 4.337 0 0 0 -1.884-6.483 4.284 4.284 0 0 0 -4.1.4 12.067 12.067 0 0 1 -16.033-17.734 3 3 0 0 0 -1.433-4.806 16.624 16.624 0 0 1 -11.734-15.079 21.178 21.178 0 0 0 4.015.393 51.428 51.428 0 0 0 24.842-6.416l25.572-14.157a130.824 130.824 0 0 1 130.749 2.514l19.012 11.5-109.351 78.51a5.583 5.583 0 0 0 -6.013-3.5zm66.638-22.306-15.345 10.144-4.36-6.325 14.948-10.732zm-43.792 36.573c-.268.045-.536.077-.8.107l10.2-6.743c-1.542 3.602-4.679 5.832-9.4 6.631zm-11.693.115a.576.576 0 0 1 -.786-.153l-2.661-3.86a.575.575 0 0 1 .137-.789l34.211-24.563 4.229 6.136zm144.223-48.569a12.107 12.107 0 0 1 -15.712 1.851 4.279 4.279 0 0 0 -4.095-.405 4.338 4.338 0 0 0 -1.783 6.624 12.068 12.068 0 0 1 -17.481 16.427 5.012 5.012 0 0 0 -6.514-.009 5.085 5.085 0 0 0 -1.683 4.852c1.372 7.1-1.111 15.724-9.8 17.867a15.592 15.592 0 0 1 -18.421-9.794 5.055 5.055 0 0 0 -9.537.122c-2.858 8.233-10 12.2-17.774 9.858-4.875-1.466-7.937-5.273-9.1-11.317a5.208 5.208 0 0 0 -.475-1.37l94.224-62.3 18.419 11.142a10.354 10.354 0 0 1 3.318 7.807 13.175 13.175 0 0 1 -3.586 8.64zm22.817-42.63a14.016 14.016 0 0 0 13.72-10.914 3.7 3.7 0 0 1 6.724-1.154l1.742 2.736a20.246 20.246 0 0 1 -1.6 24.007 30.829 30.829 0 0 1 -39.724 6.551l-16.3-9.86 5.244-3.467a14.367 14.367 0 0 0 3.144.374 8.552 8.552 0 0 0 7.4-3.519 7.687 7.687 0 0 0 1.251-4.654l5.708-3.774a23.957 23.957 0 0 0 12.691 3.674zm174.5-161.2a11.08 11.08 0 1 1 12.573 18.243l-232.559 153.774-6.49-9.416zm-215.214 103.783c-1.4 1.567-7.525.342-13.549-5.065a23.872 23.872 0 0 1 -6.256-8.444c-.787-2.007-.881-3.766-.24-4.481a2.661 2.661 0 0 1 2-.631c2.618 0 7.109 1.713 11.548 5.7 6.027 5.404 7.901 11.355 6.497 12.921zm-9.137-22.076c-4.041-2.132-7.975-2.948-11.1-2.292-.6-.46-1.206-.9-1.811-1.353l15.262-11.781 6.675 9zm245.514-178.949a11 11 0 0 1 -4.516 7.293l-227.088 161.748-6.813-9.185 220.7-170.359a11.081 11.081 0 0 1 17.715 10.5z" fill="#284268" data-original="#284268" class=""/><path xmlns="http://www.w3.org/2000/svg" d="m260.751 214.718-6.681 5.158a3 3 0 0 0 3.667 4.75l6.681-5.158a3 3 0 0 0 -3.667-4.75z" fill="#284268" data-original="#284268" class=""/><path xmlns="http://www.w3.org/2000/svg" d="m323.253 166.7-50.172 38.728a3 3 0 0 0 3.666 4.75l50.172-38.728a3 3 0 0 0 -3.666-4.75z" fill="#284268" data-original="#284268" class=""/><path xmlns="http://www.w3.org/2000/svg" d="m60.8 326.706a20.741 20.741 0 0 0 2.233.117 28.092 28.092 0 0 0 11.98-2.9c10.4-5 15.9-14.43 12.522-21.461-1.729-3.6-5.412-5.873-10.369-6.407a26.865 26.865 0 0 0 -14.213 2.786c-10.4 5-15.9 14.43-12.522 21.461 1.73 3.598 5.413 5.87 10.369 6.404zm4.753-22.46a22.325 22.325 0 0 1 9.4-2.31 14.536 14.536 0 0 1 1.567.082c1.631.175 4.528.8 5.6 3.041 1.622 3.374-1.969 9.728-9.715 13.453a21.12 21.12 0 0 1 -10.971 2.228c-1.631-.176-4.528-.8-5.6-3.041-1.617-3.374 1.974-9.728 9.72-13.453z" fill="#284268" data-original="#284268" class=""/><path xmlns="http://www.w3.org/2000/svg" d="m106.965 301.428a24.822 24.822 0 0 0 9.525 1.777 30.968 30.968 0 0 0 4.893-.395c11.4-1.83 19.357-9.3 18.122-17-.632-3.943-3.513-7.173-8.112-9.1a28.759 28.759 0 0 0 -27.68 4.44c-3.766 3.268-5.492 7.238-4.859 11.178s3.512 7.172 8.111 9.1zm.68-15.742a21.147 21.147 0 0 1 10.281-4.431 24.769 24.769 0 0 1 3.915-.315 19.026 19.026 0 0 1 7.235 1.307c1.513.634 4.112 2.063 4.5 4.513.592 3.7-4.662 8.763-13.148 10.126a21.188 21.188 0 0 1 -11.151-.992c-1.514-.634-4.112-2.063-4.5-4.514s1.628-4.619 2.868-5.694z" fill="#284268" data-original="#284268" class=""/><path xmlns="http://www.w3.org/2000/svg" d="m180.6 303.452c8.213 0 14.82-3.659 16.238-9.623.923-3.883-.5-7.97-4.016-11.507a26.9 26.9 0 0 0 -12.794-6.791c-11.231-2.67-21.441 1.189-23.246 8.78s5.581 15.627 16.811 18.3a30.326 30.326 0 0 0 7.007.841zm-17.98-17.752c.662-2.786 4.792-5 10.441-5a24.159 24.159 0 0 1 5.58.677 21.155 21.155 0 0 1 9.923 5.181c1.157 1.165 3.011 3.478 2.437 5.892-.866 3.643-7.658 6.319-16.021 4.329s-13.226-7.439-12.36-11.079z" fill="#284268" data-original="#284268" class=""/><path xmlns="http://www.w3.org/2000/svg" d="m221.088 319.2a26.9 26.9 0 0 0 13.663 4.808c.245.01.488.013.728.013 4.641 0 8.336-1.709 10.457-4.856 2.23-3.311 2.334-7.638.29-12.186a26.892 26.892 0 0 0 -9.585-10.857c-9.573-6.452-20.487-6.437-24.848.034-2.23 3.311-2.334 7.638-.29 12.186a26.9 26.9 0 0 0 9.585 10.858zm-4.319-19.69c.947-1.406 2.962-2.2 5.545-2.2a20.344 20.344 0 0 1 10.974 3.786 21.155 21.155 0 0 1 7.465 8.341c.673 1.5 1.594 4.315.207 6.373s-4.344 2.259-5.984 2.2a22.825 22.825 0 0 1 -18-12.13c-.676-1.494-1.594-4.313-.207-6.37z" fill="#284268" data-original="#284268" class=""/></g></svg>
