<?xml version="1.0" encoding="iso-8859-1"?>
<!-- Generator: Adobe Illustrator 19.0.0, SVG Export Plug-In . SVG Version: 6.00 Build 0)  -->
<svg version="1.1" id="Capa_1" xmlns="http://www.w3.org/2000/svg" xmlns:xlink="http://www.w3.org/1999/xlink" x="0px" y="0px"
	 viewBox="0 0 512 512" style="enable-background:new 0 0 512 512;" xml:space="preserve">
<circle style="fill:#9CE2D8;" cx="256" cy="267" r="245"/>
<path style="fill:#52BBEF;" d="M433.381,98h-117.54c-0.973-6.782-6.789-12-13.841-12s-12.868,5.218-13.841,12H193
	c0-11.047-8.953-20-20-20c-11.046,0-20,8.953-20,20H78.619C36.723,141.961,11,201.477,11,267c0,135.31,109.69,245,245,245
	s245-109.69,245-245C501,201.477,475.277,141.961,433.381,98z"/>
<path style="fill:#2DA1DC;" d="M50.102,255.964c5.896,5.254,13.58,8.265,21.613,8.265c10.465,0,20.349-5.092,26.438-13.619
	c0.211-0.297,0.318-0.648,0.318-0.995c0-0.348-0.107-0.698-0.318-0.995C92.063,240.091,82.18,235,71.715,235
	c-8.033,0-15.718,3.01-21.613,8.264c-3.388-3.142-7.502-5.439-11.992-6.634c-0.504-0.135-1.042-0.026-1.455,0.29
	C36.24,237.238,36,237.73,36,238.251v22.727c0,0.521,0.24,1.014,0.654,1.331c0.414,0.317,0.951,0.425,1.455,0.292
	C42.6,261.403,46.715,259.107,50.102,255.964z"/>
<g>
	<path style="fill:#1A2B63;" d="M154.54,290.91v-75.005h-13.792c-5.5,0-10,4.5-10,10v79.174c0,5.5,4.5,10,10,10h16.672
		C155.543,307.328,154.54,299.235,154.54,290.91z"/>
	<path style="fill:#1A2B63;" d="M371.252,215.905h-13.791v75.005c0,8.325-1.003,16.418-2.88,24.169h16.671c5.5,0,10-4.5,10-10
		v-79.174C381.252,220.405,376.752,215.905,371.252,215.905z"/>
</g>
<path style="fill:#293D7C;" d="M351.973,404.518h-47.879v-23.736C289.772,388.572,273.391,393,256,393s-33.773-4.428-48.094-12.219
	v23.736h-47.879c-17.35,0-31.468,14.117-31.468,31.467v40.297C165.69,498.94,209.319,512,256,512s90.31-13.06,127.44-35.719v-40.297
	C383.44,418.635,369.323,404.518,351.973,404.518z"/>
<path style="fill:#1A2B63;" d="M145.119,446.294c0-15.696,12.771-28.467,28.468-28.467h47.879c1.657,0,3-1.343,3-3v-26.882
	c-5.763-1.9-11.301-4.303-16.56-7.164v23.736h-47.879c-17.35,0-31.468,14.117-31.468,31.467v40.297
	c5.386,3.286,10.911,6.364,16.559,9.236L145.119,446.294L145.119,446.294z"/>
<path style="fill:#445EA0;" d="M256,129.149c-56.589,0-102.46,24.48-102.46,81.412v80.349C153.54,347.844,199.411,394,256,394
	s102.461-46.156,102.461-103.09v-80.349C358.461,153.63,312.589,129.149,256,129.149z"/>
<path style="fill:#2E4C89;" d="M174.079,290.91v-80.349c0-53.444,40.425-78.29,92.19-81.134c-3.378-0.186-6.803-0.278-10.27-0.278
	c-56.589,0-102.46,24.48-102.46,81.412v80.349C153.54,347.844,199.411,394,256,394c3.467,0,6.892-0.176,10.27-0.514
	C214.504,388.303,174.079,344.356,174.079,290.91z"/>
<path style="fill:#60D882;" d="M301.145,218.915l-3.382-11.617c-1.008-3.464-4.783-6.298-8.391-6.298h-66.744
	c-3.607,0-7.383,2.834-8.391,6.298l-3.381,11.617H301.145z"/>
<path style="fill:#2BB381;" d="M243.483,201h-20.855c-3.607,0-7.383,2.834-8.391,6.298l-3.381,11.617h20.855l3.381-11.617
	C236.101,203.834,239.876,201,243.483,201z"/>
<path style="fill:#94C2ED;" d="M325.596,231.915H186.402c-5.137,0-9.316,4.18-9.316,9.316v46.398c0,5.138,4.18,9.318,9.316,9.318
	h26.49C222.246,283.112,238.079,274,256,274s33.754,9.112,43.107,22.947h26.488c5.138,0,9.317-4.181,9.317-9.318v-46.398
	C334.913,236.095,330.733,231.915,325.596,231.915z"/>
<path style="fill:#6A8AC4;" d="M187.173,287.629v-46.398c0-5.137,4.18-9.316,9.316-9.316h-10.087c-5.137,0-9.316,4.18-9.316,9.316
	v46.398c0,5.138,4.18,9.318,9.316,9.318h10.087C191.352,296.947,187.173,292.767,187.173,287.629z"/>
<g>
	<path style="fill:#94C2ED;" d="M239.199,276.801l44.886-44.886h-28l-65.032,65.032h21.84
		C219.178,287.65,228.395,280.501,239.199,276.801z"/>
	<path style="fill:#94C2ED;" d="M285.669,283.331l47.503-47.503c-1.691-2.364-4.453-3.913-7.576-3.913h-16.511l-43.063,43.063
		C273.209,276.388,279.867,279.284,285.669,283.331z"/>
</g>
<g>
	<circle style="fill:#C3DDF4;" cx="124.25" cy="126.21" r="14.378"/>
	<circle style="fill:#C3DDF4;" cx="102.8" cy="166.6" r="10.804"/>
	<circle style="fill:#C3DDF4;" cx="123.8" cy="200.05" r="9.955"/>
</g>
<path style="fill:#EEF6FF;" d="M325.596,217.915H186.402c-12.856,0-23.316,10.46-23.316,23.316v46.398
	c0,12.857,10.46,23.318,23.316,23.318h19.827c1.645-5.428,4.159-10.478,7.374-15h-27.201c-4.586,0-8.316-3.732-8.316-8.318v-46.398
	c0-4.586,3.73-8.316,8.316-8.316h139.193c4.586,0,8.317,3.73,8.317,8.316v46.398c0,4.587-3.731,8.318-8.317,8.318h-27.199
	c3.215,4.522,5.728,9.572,7.374,15h19.825c12.857,0,23.317-10.461,23.317-23.318v-46.398
	C348.913,228.375,338.453,217.915,325.596,217.915z"/>
<path style="fill:#FFFFFF;" d="M255.999,427c-12.663,0-22.928,10.266-22.928,22.93v60.994C240.622,511.625,248.267,512,256,512
	s15.378-0.375,22.928-1.076V449.93C278.928,437.266,268.663,427,255.999,427z"/>
<path style="fill:#C3DDF4;" d="M270.436,454.176v-4.246c0-7.961-6.477-14.438-14.438-14.438c-7.959,0-14.435,6.477-14.435,14.438
	v4.246H270.436z"/>
<rect x="241.56" y="462.67" style="fill:#9CE2D8;" width="28.873" height="15.285"/>
<path style="fill:#02AF8E;" d="M241.564,511.072c0,0.167,0.019,0.329,0.025,0.494C246.358,511.844,251.16,512,256,512
	s9.642-0.156,14.411-0.434c0.006-0.165,0.025-0.327,0.025-0.494v-24.627h-28.873L241.564,511.072L241.564,511.072z"/>
<g>
	<path style="fill:#2DA1DC;" d="M91.102,352.964c5.896,5.254,13.58,8.265,21.613,8.265c10.465,0,20.349-5.092,26.438-13.619
		c0.211-0.297,0.318-0.647,0.318-0.995s-0.107-0.698-0.318-0.995c-6.089-8.529-15.973-13.62-26.438-13.62
		c-8.033,0-15.718,3.01-21.613,8.264c-3.388-3.142-7.502-5.44-11.992-6.634c-0.504-0.135-1.042-0.026-1.455,0.29
		c-0.414,0.318-0.654,0.81-0.654,1.331v22.727c0,0.521,0.24,1.014,0.654,1.331s0.951,0.425,1.455,0.292
		C83.6,358.403,87.715,356.107,91.102,352.964z"/>
	<path style="fill:#2DA1DC;" d="M383.584,392.655c6.934,6.179,15.972,9.72,25.42,9.72c12.307,0,23.932-5.988,31.092-16.017
		c0.248-0.35,0.375-0.762,0.375-1.171c0-0.408-0.127-0.82-0.375-1.17C432.935,373.987,421.31,368,409.004,368
		c-9.448,0-18.486,3.54-25.42,9.719c-3.983-3.694-8.822-6.397-14.104-7.802c-0.593-0.158-1.226-0.031-1.711,0.341
		c-0.487,0.375-0.77,0.953-0.77,1.566v26.728c0,0.613,0.282,1.192,0.77,1.565c0.486,0.373,1.118,0.5,1.711,0.344
		C374.762,399.053,379.602,396.353,383.584,392.655z"/>
	<path style="fill:#2DA1DC;" d="M410.102,177.735c5.896,5.254,13.58,8.265,21.613,8.265c10.465,0,20.349-5.092,26.438-13.619
		c0.211-0.297,0.318-0.648,0.318-0.995c0-0.348-0.107-0.698-0.318-0.995c-6.089-8.528-15.973-13.619-26.438-13.619
		c-8.033,0-15.718,3.01-21.613,8.264c-3.388-3.142-7.502-5.439-11.992-6.634c-0.504-0.135-1.042-0.026-1.455,0.29
		c-0.414,0.318-0.654,0.81-0.654,1.331v22.726c0,0.521,0.24,1.014,0.654,1.331c0.414,0.317,0.951,0.425,1.455,0.292
		C402.6,183.175,406.715,180.879,410.102,177.735z"/>
</g>
<g>
	<circle style="fill:#52BBEF;" cx="223" cy="69" r="15"/>
	<circle style="fill:#52BBEF;" cx="257" cy="48" r="9"/>
	<circle style="fill:#52BBEF;" cx="292" cy="23" r="9"/>
	<circle style="fill:#52BBEF;" cx="227.94" cy="15" r="15"/>
</g>
<circle style="fill:#1A2B63;" cx="256" cy="326" r="53"/>
<circle style="fill:#445EA0;" cx="256" cy="326" r="29"/>
<path style="fill:#60D882;" d="M274.5,331v-3.451c0-5.273-4.275-9.549-9.549-9.549h-17.902c-5.273,0-9.549,4.275-9.549,9.549V331
	H274.5z"/>
<g>
	<path style="fill:#293D7C;" d="M227.281,330c1.949,14.123,14.061,25,28.719,25s26.77-10.877,28.719-25H227.281z"/>
	<circle style="fill:#293D7C;" cx="283.25" cy="170" r="9.125"/>
</g>
<g>
	<circle style="fill:#02AF8E;" cx="256.03" cy="170" r="9.125"/>
	<circle style="fill:#02AF8E;" cx="228.75" cy="170" r="9.125"/>
</g>
<g>
</g>
<g>
</g>
<g>
</g>
<g>
</g>
<g>
</g>
<g>
</g>
<g>
</g>
<g>
</g>
<g>
</g>
<g>
</g>
<g>
</g>
<g>
</g>
<g>
</g>
<g>
</g>
<g>
</g>
</svg>
