<?xml version="1.0"?>
<svg xmlns="http://www.w3.org/2000/svg" xmlns:xlink="http://www.w3.org/1999/xlink" xmlns:svgjs="http://svgjs.com/svgjs" version="1.1" width="512" height="512" x="0" y="0" viewBox="0 0 24 24" style="enable-background:new 0 0 512 512" xml:space="preserve" class=""><g><path clip-rule="evenodd" d="m12 21.9883c-.1657.0078-.3324.0117-.5.0117-5.79899 0-10.5-4.701-10.5-10.5 0-5.79899 4.70101-10.5 10.5-10.5 5.799 0 10.5 4.70101 10.5 10.5 0 3.8195-2.0394 7.1627-5.0886 9h6.3386c.4142 0 .75.3358.75.75s-.3358.75-.75.75h-11.25zm-.5283-13.04494c1.3651 0 2.4717-1.10661 2.4717-2.47168s-1.1066-2.47168-2.4717-2.47168-2.4717 1.10661-2.4717 2.47168 1.1066 2.47168 2.4717 2.47168zm.0283 10.05664c1.3651 0 2.4717-1.1066 2.4717-2.4717s-1.1066-2.4717-2.4717-2.4717-2.47169 1.1066-2.47169 2.4717 1.10659 2.4717 2.47169 2.4717zm-2.52832-7.5283c0 1.3651-1.10661 2.4717-2.47168 2.4717s-2.47168-1.1066-2.47168-2.4717 1.10661-2.47169 2.47168-2.47169 2.47168 1.10659 2.47168 2.47169zm7.55662 2.5c1.3651 0 2.4717-1.1066 2.4717-2.4717s-1.1066-2.47168-2.4717-2.47168-2.4717 1.10658-2.4717 2.47168 1.1066 2.4717 2.4717 2.4717z" fill="#8f8f8f" fill-rule="evenodd" data-original="#000000" class=""/></g></svg>
